<svg width="38" height="38" viewBox="0 0 38 38" fill="none" xmlns="http://www.w3.org/2000/svg">
<g id="Group 2">
<line id="Line 10" x1="20.1213" y1="9.51493" x2="24.1213" y2="10.5149" stroke="black"/>
<g id="Thai Tea Logo">
<rect id="Rectangle 8" width="20" height="1" transform="matrix(1 0 0 -1 9 35)" fill="#F0A157"/>
<path id="Rectangle 9" d="M11.5 36H26.5L28 34H10L11.5 36Z" fill="#F0A157"/>
<rect id="Rectangle 10" width="12" height="1" transform="matrix(1 0 0 -1 13 37)" fill="#F0A157"/>
<g id="Thai Tea Logo_2">
<rect id="Rectangle 5" x="9" y="21" width="8" height="2" rx="1" fill="#F0A157"/>
<rect id="Rectangle 7" width="24" height="2" rx="1" transform="matrix(1 0 0 -1 7 34)" fill="#F0A157"/>
<rect id="Rectangle 4" x="7" y="22" width="13" height="2" rx="1" fill="#F0A157"/>
<rect id="Rectangle 3" x="7" y="23" width="24" height="10" rx="2" fill="#F0A157"/>
<circle id="Ellipse 1" cx="19" cy="19" r="18.5" stroke="black"/>
<rect id="Rectangle 6" x="29" y="23" width="2" height="2" rx="1" fill="#F0A157"/>
<line id="Line 5" x1="7.50097" y1="33.0312" x2="6.50097" y2="17.0312" stroke="black"/>
<line id="Line 6" x1="6" y1="16.5" x2="32" y2="16.5" stroke="black"/>
<line id="Line 7" x1="31.499" y1="17.0312" x2="30.499" y2="33.0312" stroke="black"/>
<path id="Line 8" d="M7 22.5L7.24886 22.3643C10.5551 20.5609 14.5168 20.4167 17.9454 21.9752V21.9752C21.537 23.6077 25.5835 23.9444 29.3955 22.9279L31 22.5" stroke="black"/>
<line id="Line 9" x1="17.5149" y1="21.8787" x2="20.5149" y2="9.87873" stroke="black"/>
<line id="Line 11" x1="24.4872" y1="10.1124" x2="21.4872" y2="23.1124" stroke="black"/>
</g>
</g>
</g>
</svg>
