<svg width="226" height="258" viewBox="0 0 226 258" fill="none" xmlns="http://www.w3.org/2000/svg">
<path d="M92.8213 13.6206L28.25 50.7491C15.7393 58.0134 8.07141 71.3312 8.07141 85.8598V172.224C8.07141 186.753 15.7393 200.07 28.25 207.335L92.8213 244.463C105.332 251.727 120.668 251.727 133.178 244.463L197.75 207.335C210.26 200.07 217.928 186.753 217.928 172.224V85.8598C217.928 71.3312 210.26 58.0134 197.75 50.7491L133.178 13.6206C120.668 6.35629 105.332 6.35629 92.8213 13.6206Z" fill="white"/>
<path d="M32.2857 57.6097L52.4642 45.9061L44.3928 32.1847L24.2143 43.8882C9.28213 52.3632 0 68.5061 0 85.8596V172.224C0 189.577 9.28213 205.72 24.2143 214.195L88.7856 251.324C103.718 259.799 122.282 259.799 137.214 251.324L201.785 214.195C216.718 205.72 226 189.577 226 172.224V161.327H211.875V100.388C211.875 87.8775 198.557 80.2096 187.66 86.2632L129.143 119.76C119.053 125.41 113 136.306 113 147.606V158.906C113 197.245 72.2392 221.056 39.1464 204.106L32.2857 200.07C22.1964 194.42 16.1428 183.524 16.1428 172.224V85.8596C16.1428 74.1561 22.1964 63.6632 32.2857 57.6097Z" fill="#ACBDC5"/>
<path d="M36.3218 55.5919L28.2504 41.4669L88.786 6.35624C103.718 -2.11875 122.282 -2.11875 137.215 6.35624L201.786 43.4848C216.718 51.9598 226 68.1026 226 85.4562V171.82C226 189.174 216.718 205.317 201.786 213.792L197.75 216.213L189.679 202.088L193.714 199.667C203.804 194.017 209.857 183.12 209.857 171.82V85.8597C209.857 74.1562 203.804 63.6633 193.714 58.0133L129.143 20.4812C119.054 14.8312 106.947 14.8312 96.8574 20.4812L36.3218 55.5919ZM35.1111 135.095C39.5504 143.167 48.0253 146.799 54.0789 143.167C60.1325 139.535 60.9396 130.253 56.5003 122.181C52.0611 114.11 43.5861 110.478 37.5325 114.11C31.4789 117.742 30.6718 127.024 35.1111 135.095ZM189.275 114.11C184.432 111.285 177.168 114.11 173.132 120.97C169.097 127.831 170.307 135.095 175.15 137.92C179.993 140.745 187.257 137.92 191.293 131.06C195.329 124.199 194.118 116.935 189.275 114.11ZM168.289 149.624C163.447 146.799 156.182 149.624 152.147 156.485C148.111 162.942 149.322 170.61 154.165 173.435C159.007 176.26 166.272 173.435 170.307 166.574C174.343 159.713 173.536 152.449 168.289 149.624ZM133.582 208.545C138.425 211.37 145.69 208.545 149.725 201.685C153.761 195.227 152.55 187.56 147.707 184.735C142.865 181.91 135.6 184.735 131.565 191.595C127.529 198.456 128.74 205.72 133.582 208.545ZM94.0324 187.56C89.5931 179.488 81.1182 175.856 75.0646 179.488C69.011 183.12 68.2039 192.402 72.6432 200.474C77.0825 208.545 85.5574 212.177 91.611 208.545C97.6646 204.913 98.4717 195.631 94.0324 187.56Z" fill="#314A52"/>
<path d="M145.286 68.5061C145.286 79.806 130.757 84.6489 113 84.6489C95.2429 84.6489 80.7144 79.806 80.7144 68.5061C80.7144 57.2061 95.2429 48.3275 113 48.3275C130.757 48.3275 145.286 57.2061 145.286 68.5061Z" fill="#D7385E"/>
<path d="M144.479 64.0669C144.479 68.9097 130.354 72.5419 113 72.5419C95.6465 72.5419 81.5215 68.9097 81.5215 64.4705V64.0669C81.1179 65.6812 80.7144 66.8919 80.7144 68.5062C80.7144 79.8062 95.2429 88.6847 113 88.6847C130.757 88.6847 145.286 79.8062 145.286 68.5062C145.286 66.8919 144.882 65.6812 144.479 64.0669Z" fill="#FF6C58"/>
</svg>
