<svg width="200" height="35" viewBox="0 0 200 35" fill="none" xmlns="http://www.w3.org/2000/svg">
<g filter="url(#filter0_d_77_1573)">
<mask id="path-1-outside-1_77_1573" maskUnits="userSpaceOnUse" x="3" y="-1" width="194" height="29" fill="black">
<rect fill="white" x="3" y="-1" width="194" height="29"/>
<path d="M14.6588 14.928H7.29875V25.424C7.29875 25.9147 6.87208 26.16 6.01875 26.16C5.16542 26.16 4.73875 25.9147 4.73875 25.424V7.952C4.73875 5.968 5.12275 4.53867 5.89075 3.664C6.65875 2.768 7.96008 2.32 9.79475 2.32H15.9388C16.3654 2.32 16.5788 2.69333 16.5788 3.44C16.5788 4.18667 16.3654 4.56 15.9388 4.56H9.79475C8.87742 4.56 8.22675 4.816 7.84275 5.328C7.48008 5.84 7.29875 6.71467 7.29875 7.952V12.688H14.6588C15.0854 12.688 15.2988 13.0613 15.2988 13.808C15.2988 14.5547 15.0854 14.928 14.6588 14.928ZM31.4023 21.744V11.056C31.4023 9.392 29.9409 8.56 27.0183 8.56C24.1169 8.56 22.6663 9.392 22.6663 11.056V21.744C22.6663 23.408 24.1169 24.24 27.0183 24.24C29.9409 24.24 31.4023 23.408 31.4023 21.744ZM33.9623 11.376V21.424C33.9623 23.1947 33.3329 24.4853 32.0743 25.296C30.8156 26.0853 29.1409 26.48 27.0503 26.48C24.9596 26.48 23.2743 26.0853 21.9943 25.296C20.7356 24.4853 20.1063 23.1947 20.1063 21.424V11.376C20.1063 9.60533 20.7356 8.32533 21.9943 7.536C23.2529 6.72533 24.9276 6.32 27.0183 6.32C29.1089 6.32 30.7836 6.72533 32.0423 7.536C33.3223 8.32533 33.9623 9.60533 33.9623 11.376ZM51.6523 21.744V11.056C51.6523 9.392 50.1909 8.56 47.2683 8.56C44.3669 8.56 42.9163 9.392 42.9163 11.056V21.744C42.9163 23.408 44.3669 24.24 47.2683 24.24C50.1909 24.24 51.6523 23.408 51.6523 21.744ZM54.2123 11.376V21.424C54.2123 23.1947 53.5829 24.4853 52.3243 25.296C51.0656 26.0853 49.3909 26.48 47.3003 26.48C45.2096 26.48 43.5243 26.0853 42.2443 25.296C40.9856 24.4853 40.3563 23.1947 40.3563 21.424V11.376C40.3563 9.60533 40.9856 8.32533 42.2443 7.536C43.5029 6.72533 45.1776 6.32 47.2683 6.32C49.3589 6.32 51.0336 6.72533 52.2923 7.536C53.5723 8.32533 54.2123 9.60533 54.2123 11.376ZM74.4623 1.136V21.424C74.4623 23.1947 73.8329 24.4853 72.5743 25.296C71.3156 26.0853 69.6409 26.48 67.5503 26.48C65.4596 26.48 63.7743 26.0853 62.4943 25.296C61.2356 24.4853 60.6063 23.1947 60.6063 21.424V11.856C60.6063 10.0853 61.2356 8.80533 62.4943 8.016C63.7529 7.20533 65.4276 6.8 67.5183 6.8H70.3023C70.7289 6.8 70.9423 7.17333 70.9423 7.92C70.9423 8.66667 70.7289 9.04 70.3023 9.04H67.5183C64.6169 9.04 63.1663 9.872 63.1663 11.536V21.744C63.1663 23.408 64.6169 24.24 67.5183 24.24C70.4409 24.24 71.9023 23.408 71.9023 21.744V1.136C71.9023 0.645333 72.3289 0.4 73.1823 0.4C74.0356 0.4 74.4623 0.645333 74.4623 1.136ZM88.3688 26.16H86.2248C84.3901 26.16 83.0888 25.7227 82.3208 24.848C81.5528 23.952 81.1688 22.512 81.1688 20.528V6.896C81.1688 5.12533 81.8088 3.84533 83.0888 3.056C84.3688 2.24533 86.0754 1.84 88.2088 1.84C90.3421 1.84 92.0381 2.24533 93.2968 3.056C94.5554 3.84533 95.1848 5.12533 95.1848 6.896V9.872C95.1848 11.9627 94.3528 13.264 92.6888 13.776C94.5661 14.224 95.5048 15.5467 95.5048 17.744V21.104C95.5048 22.8747 94.8541 24.1653 93.5528 24.976C92.2514 25.7653 90.5234 26.16 88.3688 26.16ZM89.4888 14.928H85.4888C85.0621 14.928 84.8488 14.5547 84.8488 13.808C84.8488 13.0613 85.0621 12.688 85.4888 12.688H89.1688C91.4728 12.688 92.6248 11.7493 92.6248 9.872V6.576C92.6248 4.912 91.1421 4.08 88.1768 4.08C85.2114 4.08 83.7288 4.912 83.7288 6.576V20.528C83.7288 21.7653 83.9101 22.64 84.2728 23.152C84.6568 23.664 85.3074 23.92 86.2248 23.92H88.3048C91.3981 23.92 92.9448 23.088 92.9448 21.424V17.744C92.9448 15.8667 91.7928 14.928 89.4888 14.928ZM112.559 21.744V11.056C112.559 9.392 111.097 8.56 108.175 8.56C105.273 8.56 103.823 9.392 103.823 11.056V21.744C103.823 23.408 105.273 24.24 108.175 24.24C111.097 24.24 112.559 23.408 112.559 21.744ZM115.119 11.376V21.424C115.119 23.1947 114.489 24.4853 113.231 25.296C111.972 26.0853 110.297 26.48 108.207 26.48C106.116 26.48 104.431 26.0853 103.151 25.296C101.892 24.4853 101.263 23.1947 101.263 21.424V11.376C101.263 9.60533 101.892 8.32533 103.151 7.536C104.409 6.72533 106.084 6.32 108.175 6.32C110.265 6.32 111.94 6.72533 113.199 7.536C114.479 8.32533 115.119 9.60533 115.119 11.376ZM132.809 21.744V11.056C132.809 9.392 131.347 8.56 128.425 8.56C125.523 8.56 124.073 9.392 124.073 11.056V21.744C124.073 23.408 125.523 24.24 128.425 24.24C131.347 24.24 132.809 23.408 132.809 21.744ZM135.369 11.376V21.424C135.369 23.1947 134.739 24.4853 133.481 25.296C132.222 26.0853 130.547 26.48 128.457 26.48C126.366 26.48 124.681 26.0853 123.401 25.296C122.142 24.4853 121.513 23.1947 121.513 21.424V11.376C121.513 9.60533 122.142 8.32533 123.401 7.536C124.659 6.72533 126.334 6.32 128.425 6.32C130.515 6.32 132.19 6.72533 133.449 7.536C134.729 8.32533 135.369 9.60533 135.369 11.376ZM144.643 1.136V25.424C144.643 25.9147 144.216 26.16 143.363 26.16C142.509 26.16 142.083 25.9147 142.083 25.424V1.136C142.083 0.645333 142.509 0.4 143.363 0.4C144.216 0.4 144.643 0.645333 144.643 1.136ZM155.779 25.584C155.779 25.968 155.405 26.16 154.659 26.16C153.912 26.16 153.464 25.9147 153.315 25.424L151.427 18.928C151.213 18.1813 150.936 17.712 150.595 17.52C150.275 17.3067 149.539 17.2 148.387 17.2H146.371C145.944 17.2 145.731 16.8267 145.731 16.08C145.731 15.3333 145.944 14.96 146.371 14.96H147.587C148.483 14.9387 149.069 14.832 149.347 14.64C149.624 14.4267 149.891 13.9573 150.147 13.232L152.291 7.376C152.461 6.88533 152.909 6.64 153.635 6.64C154.381 6.64 154.755 6.832 154.755 7.216C154.755 7.23733 154.648 7.568 154.435 8.208L152.355 14.128C152.163 14.6613 151.896 15.0667 151.555 15.344C152.536 15.7067 153.229 16.6027 153.635 18.032L155.555 24.72C155.704 25.2747 155.779 25.5627 155.779 25.584ZM175.029 11.312V12.272C175.029 14.0853 174.655 15.3333 173.909 16.016C173.162 16.6987 171.797 17.136 169.813 17.328L163.573 17.936V21.744C163.573 23.408 164.959 24.24 167.733 24.24C170.89 24.24 172.469 23.5147 172.469 22.064V20.848C172.469 20.3573 172.895 20.112 173.749 20.112C174.602 20.112 175.029 20.3573 175.029 20.848V21.744C175.029 24.9013 172.682 26.48 167.989 26.48C165.919 26.48 164.234 26.0747 162.933 25.264C161.653 24.4533 161.013 23.1733 161.013 21.424V11.376C161.013 9.60533 161.695 8.32533 163.061 7.536C164.426 6.72533 166.207 6.32 168.405 6.32C170.602 6.32 172.255 6.704 173.365 7.472C174.474 8.24 175.029 9.52 175.029 11.312ZM163.573 11.056V15.696L169.589 15.088C170.805 14.96 171.583 14.704 171.925 14.32C172.287 13.936 172.469 13.2533 172.469 12.272V11.056C172.469 9.392 170.986 8.56 168.021 8.56C165.055 8.56 163.573 9.392 163.573 11.056ZM195.275 1.136V21.424C195.275 23.1947 194.645 24.4853 193.387 25.296C192.128 26.0853 190.453 26.48 188.363 26.48C186.272 26.48 184.587 26.0853 183.307 25.296C182.048 24.4853 181.419 23.1947 181.419 21.424V11.856C181.419 10.0853 182.048 8.80533 183.307 8.016C184.565 7.20533 186.24 6.8 188.331 6.8H191.115C191.541 6.8 191.755 7.17333 191.755 7.92C191.755 8.66667 191.541 9.04 191.115 9.04H188.331C185.429 9.04 183.979 9.872 183.979 11.536V21.744C183.979 23.408 185.429 24.24 188.331 24.24C191.253 24.24 192.715 23.408 192.715 21.744V1.136C192.715 0.645333 193.141 0.4 193.995 0.4C194.848 0.4 195.275 0.645333 195.275 1.136Z"/>
</mask>
<path d="M14.6588 14.928H7.29875V25.424C7.29875 25.9147 6.87208 26.16 6.01875 26.16C5.16542 26.16 4.73875 25.9147 4.73875 25.424V7.952C4.73875 5.968 5.12275 4.53867 5.89075 3.664C6.65875 2.768 7.96008 2.32 9.79475 2.32H15.9388C16.3654 2.32 16.5788 2.69333 16.5788 3.44C16.5788 4.18667 16.3654 4.56 15.9388 4.56H9.79475C8.87742 4.56 8.22675 4.816 7.84275 5.328C7.48008 5.84 7.29875 6.71467 7.29875 7.952V12.688H14.6588C15.0854 12.688 15.2988 13.0613 15.2988 13.808C15.2988 14.5547 15.0854 14.928 14.6588 14.928ZM31.4023 21.744V11.056C31.4023 9.392 29.9409 8.56 27.0183 8.56C24.1169 8.56 22.6663 9.392 22.6663 11.056V21.744C22.6663 23.408 24.1169 24.24 27.0183 24.24C29.9409 24.24 31.4023 23.408 31.4023 21.744ZM33.9623 11.376V21.424C33.9623 23.1947 33.3329 24.4853 32.0743 25.296C30.8156 26.0853 29.1409 26.48 27.0503 26.48C24.9596 26.48 23.2743 26.0853 21.9943 25.296C20.7356 24.4853 20.1063 23.1947 20.1063 21.424V11.376C20.1063 9.60533 20.7356 8.32533 21.9943 7.536C23.2529 6.72533 24.9276 6.32 27.0183 6.32C29.1089 6.32 30.7836 6.72533 32.0423 7.536C33.3223 8.32533 33.9623 9.60533 33.9623 11.376ZM51.6523 21.744V11.056C51.6523 9.392 50.1909 8.56 47.2683 8.56C44.3669 8.56 42.9163 9.392 42.9163 11.056V21.744C42.9163 23.408 44.3669 24.24 47.2683 24.24C50.1909 24.24 51.6523 23.408 51.6523 21.744ZM54.2123 11.376V21.424C54.2123 23.1947 53.5829 24.4853 52.3243 25.296C51.0656 26.0853 49.3909 26.48 47.3003 26.48C45.2096 26.48 43.5243 26.0853 42.2443 25.296C40.9856 24.4853 40.3563 23.1947 40.3563 21.424V11.376C40.3563 9.60533 40.9856 8.32533 42.2443 7.536C43.5029 6.72533 45.1776 6.32 47.2683 6.32C49.3589 6.32 51.0336 6.72533 52.2923 7.536C53.5723 8.32533 54.2123 9.60533 54.2123 11.376ZM74.4623 1.136V21.424C74.4623 23.1947 73.8329 24.4853 72.5743 25.296C71.3156 26.0853 69.6409 26.48 67.5503 26.48C65.4596 26.48 63.7743 26.0853 62.4943 25.296C61.2356 24.4853 60.6063 23.1947 60.6063 21.424V11.856C60.6063 10.0853 61.2356 8.80533 62.4943 8.016C63.7529 7.20533 65.4276 6.8 67.5183 6.8H70.3023C70.7289 6.8 70.9423 7.17333 70.9423 7.92C70.9423 8.66667 70.7289 9.04 70.3023 9.04H67.5183C64.6169 9.04 63.1663 9.872 63.1663 11.536V21.744C63.1663 23.408 64.6169 24.24 67.5183 24.24C70.4409 24.24 71.9023 23.408 71.9023 21.744V1.136C71.9023 0.645333 72.3289 0.4 73.1823 0.4C74.0356 0.4 74.4623 0.645333 74.4623 1.136ZM88.3688 26.16H86.2248C84.3901 26.16 83.0888 25.7227 82.3208 24.848C81.5528 23.952 81.1688 22.512 81.1688 20.528V6.896C81.1688 5.12533 81.8088 3.84533 83.0888 3.056C84.3688 2.24533 86.0754 1.84 88.2088 1.84C90.3421 1.84 92.0381 2.24533 93.2968 3.056C94.5554 3.84533 95.1848 5.12533 95.1848 6.896V9.872C95.1848 11.9627 94.3528 13.264 92.6888 13.776C94.5661 14.224 95.5048 15.5467 95.5048 17.744V21.104C95.5048 22.8747 94.8541 24.1653 93.5528 24.976C92.2514 25.7653 90.5234 26.16 88.3688 26.16ZM89.4888 14.928H85.4888C85.0621 14.928 84.8488 14.5547 84.8488 13.808C84.8488 13.0613 85.0621 12.688 85.4888 12.688H89.1688C91.4728 12.688 92.6248 11.7493 92.6248 9.872V6.576C92.6248 4.912 91.1421 4.08 88.1768 4.08C85.2114 4.08 83.7288 4.912 83.7288 6.576V20.528C83.7288 21.7653 83.9101 22.64 84.2728 23.152C84.6568 23.664 85.3074 23.92 86.2248 23.92H88.3048C91.3981 23.92 92.9448 23.088 92.9448 21.424V17.744C92.9448 15.8667 91.7928 14.928 89.4888 14.928ZM112.559 21.744V11.056C112.559 9.392 111.097 8.56 108.175 8.56C105.273 8.56 103.823 9.392 103.823 11.056V21.744C103.823 23.408 105.273 24.24 108.175 24.24C111.097 24.24 112.559 23.408 112.559 21.744ZM115.119 11.376V21.424C115.119 23.1947 114.489 24.4853 113.231 25.296C111.972 26.0853 110.297 26.48 108.207 26.48C106.116 26.48 104.431 26.0853 103.151 25.296C101.892 24.4853 101.263 23.1947 101.263 21.424V11.376C101.263 9.60533 101.892 8.32533 103.151 7.536C104.409 6.72533 106.084 6.32 108.175 6.32C110.265 6.32 111.94 6.72533 113.199 7.536C114.479 8.32533 115.119 9.60533 115.119 11.376ZM132.809 21.744V11.056C132.809 9.392 131.347 8.56 128.425 8.56C125.523 8.56 124.073 9.392 124.073 11.056V21.744C124.073 23.408 125.523 24.24 128.425 24.24C131.347 24.24 132.809 23.408 132.809 21.744ZM135.369 11.376V21.424C135.369 23.1947 134.739 24.4853 133.481 25.296C132.222 26.0853 130.547 26.48 128.457 26.48C126.366 26.48 124.681 26.0853 123.401 25.296C122.142 24.4853 121.513 23.1947 121.513 21.424V11.376C121.513 9.60533 122.142 8.32533 123.401 7.536C124.659 6.72533 126.334 6.32 128.425 6.32C130.515 6.32 132.19 6.72533 133.449 7.536C134.729 8.32533 135.369 9.60533 135.369 11.376ZM144.643 1.136V25.424C144.643 25.9147 144.216 26.16 143.363 26.16C142.509 26.16 142.083 25.9147 142.083 25.424V1.136C142.083 0.645333 142.509 0.4 143.363 0.4C144.216 0.4 144.643 0.645333 144.643 1.136ZM155.779 25.584C155.779 25.968 155.405 26.16 154.659 26.16C153.912 26.16 153.464 25.9147 153.315 25.424L151.427 18.928C151.213 18.1813 150.936 17.712 150.595 17.52C150.275 17.3067 149.539 17.2 148.387 17.2H146.371C145.944 17.2 145.731 16.8267 145.731 16.08C145.731 15.3333 145.944 14.96 146.371 14.96H147.587C148.483 14.9387 149.069 14.832 149.347 14.64C149.624 14.4267 149.891 13.9573 150.147 13.232L152.291 7.376C152.461 6.88533 152.909 6.64 153.635 6.64C154.381 6.64 154.755 6.832 154.755 7.216C154.755 7.23733 154.648 7.568 154.435 8.208L152.355 14.128C152.163 14.6613 151.896 15.0667 151.555 15.344C152.536 15.7067 153.229 16.6027 153.635 18.032L155.555 24.72C155.704 25.2747 155.779 25.5627 155.779 25.584ZM175.029 11.312V12.272C175.029 14.0853 174.655 15.3333 173.909 16.016C173.162 16.6987 171.797 17.136 169.813 17.328L163.573 17.936V21.744C163.573 23.408 164.959 24.24 167.733 24.24C170.89 24.24 172.469 23.5147 172.469 22.064V20.848C172.469 20.3573 172.895 20.112 173.749 20.112C174.602 20.112 175.029 20.3573 175.029 20.848V21.744C175.029 24.9013 172.682 26.48 167.989 26.48C165.919 26.48 164.234 26.0747 162.933 25.264C161.653 24.4533 161.013 23.1733 161.013 21.424V11.376C161.013 9.60533 161.695 8.32533 163.061 7.536C164.426 6.72533 166.207 6.32 168.405 6.32C170.602 6.32 172.255 6.704 173.365 7.472C174.474 8.24 175.029 9.52 175.029 11.312ZM163.573 11.056V15.696L169.589 15.088C170.805 14.96 171.583 14.704 171.925 14.32C172.287 13.936 172.469 13.2533 172.469 12.272V11.056C172.469 9.392 170.986 8.56 168.021 8.56C165.055 8.56 163.573 9.392 163.573 11.056ZM195.275 1.136V21.424C195.275 23.1947 194.645 24.4853 193.387 25.296C192.128 26.0853 190.453 26.48 188.363 26.48C186.272 26.48 184.587 26.0853 183.307 25.296C182.048 24.4853 181.419 23.1947 181.419 21.424V11.856C181.419 10.0853 182.048 8.80533 183.307 8.016C184.565 7.20533 186.24 6.8 188.331 6.8H191.115C191.541 6.8 191.755 7.17333 191.755 7.92C191.755 8.66667 191.541 9.04 191.115 9.04H188.331C185.429 9.04 183.979 9.872 183.979 11.536V21.744C183.979 23.408 185.429 24.24 188.331 24.24C191.253 24.24 192.715 23.408 192.715 21.744V1.136C192.715 0.645333 193.141 0.4 193.995 0.4C194.848 0.4 195.275 0.645333 195.275 1.136Z" fill="white"/>
<path d="M7.29875 14.928V13.928H6.29875V14.928H7.29875ZM5.89075 3.664L6.64224 4.32385L6.65001 4.31479L5.89075 3.664ZM7.84275 5.328L7.04275 4.728L7.03459 4.73888L7.02673 4.74998L7.84275 5.328ZM7.29875 12.688H6.29875V13.688H7.29875V12.688ZM14.6588 13.928H7.29875V15.928H14.6588V13.928ZM6.29875 14.928V25.424H8.29875V14.928H6.29875ZM6.29875 25.424C6.29875 25.3979 6.30581 25.3269 6.35361 25.2445C6.40133 25.1622 6.45896 25.1213 6.48028 25.1091C6.49541 25.1004 6.47464 25.1158 6.39051 25.1319C6.30817 25.1477 6.1871 25.16 6.01875 25.16V27.16C6.50848 27.16 7.03817 27.0954 7.47722 26.8429C7.99963 26.5425 8.29875 26.0286 8.29875 25.424H6.29875ZM6.01875 25.16C5.8504 25.16 5.72933 25.1477 5.64699 25.1319C5.56286 25.1158 5.5421 25.1004 5.55722 25.1091C5.57854 25.1213 5.63618 25.1622 5.68389 25.2445C5.73169 25.3269 5.73875 25.3979 5.73875 25.424H3.73875C3.73875 26.0286 4.03787 26.5425 4.56028 26.8429C4.99933 27.0954 5.52902 27.16 6.01875 27.16V25.16ZM5.73875 25.424V7.952H3.73875V25.424H5.73875ZM5.73875 7.952C5.73875 6.05359 6.11428 4.92503 6.64219 4.3238L5.13931 3.0042C4.13122 4.1523 3.73875 5.88241 3.73875 7.952H5.73875ZM6.65001 4.31479C7.1434 3.73917 8.09039 3.32 9.79475 3.32V1.32C7.82978 1.32 6.1741 1.79683 5.13149 3.01321L6.65001 4.31479ZM9.79475 3.32H15.9388V1.32H9.79475V3.32ZM15.9388 3.32C15.8956 3.32 15.8098 3.30912 15.7149 3.25378C15.6204 3.19866 15.5701 3.13045 15.5505 3.09614C15.5344 3.06796 15.5441 3.07249 15.5564 3.13711C15.5684 3.1999 15.5788 3.29803 15.5788 3.44H17.5788C17.5788 3.00421 17.5222 2.51554 17.287 2.10386C17.004 1.60863 16.5144 1.32 15.9388 1.32V3.32ZM15.5788 3.44C15.5788 3.58197 15.5684 3.6801 15.5564 3.74289C15.5441 3.80751 15.5344 3.81204 15.5505 3.78386C15.5701 3.74955 15.6204 3.68134 15.7149 3.62622C15.8098 3.57088 15.8956 3.56 15.9388 3.56V5.56C16.5144 5.56 17.004 5.27136 17.287 4.77614C17.5222 4.36446 17.5788 3.87579 17.5788 3.44H15.5788ZM15.9388 3.56H9.79475V5.56H15.9388V3.56ZM9.79475 3.56C8.70662 3.56 7.68788 3.86782 7.04275 4.728L8.64275 5.928C8.76562 5.76418 9.04821 5.56 9.79475 5.56V3.56ZM7.02673 4.74998C6.47428 5.5299 6.29875 6.6761 6.29875 7.952H8.29875C8.29875 6.75323 8.48589 6.1501 8.65877 5.90602L7.02673 4.74998ZM6.29875 7.952V12.688H8.29875V7.952H6.29875ZM7.29875 13.688H14.6588V11.688H7.29875V13.688ZM14.6588 13.688C14.6156 13.688 14.5298 13.6771 14.4349 13.6218C14.3404 13.5667 14.2901 13.4984 14.2705 13.4641C14.2544 13.436 14.2641 13.4405 14.2764 13.5051C14.2884 13.5679 14.2988 13.666 14.2988 13.808H16.2988C16.2988 13.3722 16.2422 12.8835 16.007 12.4719C15.724 11.9766 15.2344 11.688 14.6588 11.688V13.688ZM14.2988 13.808C14.2988 13.95 14.2884 14.0481 14.2764 14.1109C14.2641 14.1755 14.2544 14.18 14.2705 14.1519C14.2901 14.1176 14.3404 14.0493 14.4349 13.9942C14.5298 13.9389 14.6156 13.928 14.6588 13.928V15.928C15.2344 15.928 15.724 15.6394 16.007 15.1441C16.2422 14.7325 16.2988 14.2438 16.2988 13.808H14.2988ZM32.0743 25.296L32.6056 26.1433L32.6157 26.1367L32.0743 25.296ZM21.9943 25.296L21.4528 26.1367L21.461 26.142L21.4694 26.1472L21.9943 25.296ZM21.9943 7.536L22.5256 8.38325L22.5357 8.37671L21.9943 7.536ZM32.0423 7.536L31.5008 8.37671L31.509 8.38202L31.5174 8.38717L32.0423 7.536ZM32.4023 21.744V11.056H30.4023V21.744H32.4023ZM32.4023 11.056C32.4023 9.85988 31.8399 8.90647 30.801 8.31498C29.8458 7.7711 28.5417 7.56 27.0182 7.56V9.56C28.4175 9.56 29.3054 9.7649 29.8115 10.053C30.2339 10.2935 30.4023 10.5881 30.4023 11.056H32.4023ZM27.0182 7.56C25.5048 7.56 24.2075 7.77125 23.2567 8.31654C22.2225 8.90969 21.6663 9.86349 21.6663 11.056H23.6663C23.6663 10.5845 23.8353 10.2903 24.2518 10.0515C24.7517 9.76475 25.6304 9.56 27.0182 9.56V7.56ZM21.6663 11.056V21.744H23.6663V11.056H21.6663ZM21.6663 21.744C21.6663 22.9365 22.2225 23.8903 23.2567 24.4835C24.2075 25.0287 25.5048 25.24 27.0182 25.24V23.24C25.6304 23.24 24.7517 23.0353 24.2518 22.7485C23.8353 22.5097 23.6663 22.2155 23.6663 21.744H21.6663ZM27.0182 25.24C28.5417 25.24 29.8458 25.0289 30.801 24.485C31.8399 23.8935 32.4023 22.9401 32.4023 21.744H30.4023C30.4023 22.2119 30.2339 22.5065 29.8115 22.747C29.3054 23.0351 28.4175 23.24 27.0182 23.24V25.24ZM32.9623 11.376V21.424H34.9622V11.376H32.9623ZM32.9623 21.424C32.9623 22.9269 32.4498 23.8646 31.5328 24.4553L32.6157 26.1367C34.216 25.106 34.9622 23.4625 34.9622 21.424H32.9623ZM31.543 24.4488C30.4958 25.1055 29.0261 25.48 27.0503 25.48V27.48C29.2557 27.48 31.1354 27.0652 32.6055 26.1432L31.543 24.4488ZM27.0503 25.48C25.0756 25.48 23.5913 25.106 22.5191 24.4448L21.4694 26.1472C22.9572 27.0647 24.8435 27.48 27.0503 27.48V25.48ZM22.5357 24.4553C21.6187 23.8646 21.1063 22.9269 21.1063 21.424H19.1063C19.1063 23.4625 19.8525 25.106 21.4528 26.1367L22.5357 24.4553ZM21.1063 21.424V11.376H19.1063V21.424H21.1063ZM21.1063 11.376C21.1063 9.87267 21.6182 8.95219 22.5255 8.38319L21.463 6.68881C19.853 7.69848 19.1063 9.338 19.1063 11.376H21.1063ZM22.5357 8.37671C23.5808 7.70359 25.0465 7.32 27.0182 7.32V5.32C24.8087 5.32 22.925 5.74708 21.4528 6.69528L22.5357 8.37671ZM27.0182 7.32C28.99 7.32 30.4557 7.70359 31.5008 8.37671L32.5837 6.69528C31.1115 5.74708 29.2278 5.32 27.0182 5.32V7.32ZM31.5174 8.38717C32.4454 8.95947 32.9623 9.88005 32.9623 11.376H34.9622C34.9622 9.33062 34.1991 7.6912 32.5671 6.68483L31.5174 8.38717ZM52.3242 25.296L52.8556 26.1433L52.8657 26.1367L52.3242 25.296ZM42.2443 25.296L41.7028 26.1367L41.711 26.142L41.7194 26.1472L42.2443 25.296ZM42.2443 7.536L42.7756 8.38325L42.7857 8.37671L42.2443 7.536ZM52.2923 7.536L51.7508 8.37671L51.759 8.38202L51.7674 8.38717L52.2923 7.536ZM52.6523 21.744V11.056H50.6523V21.744H52.6523ZM52.6523 11.056C52.6523 9.85988 52.0899 8.90647 51.051 8.31498C50.0958 7.7711 48.7917 7.56 47.2682 7.56V9.56C48.6675 9.56 49.5554 9.7649 50.0615 10.053C50.4839 10.2935 50.6523 10.5881 50.6523 11.056H52.6523ZM47.2682 7.56C45.7548 7.56 44.4575 7.77125 43.5067 8.31654C42.4725 8.90969 41.9163 9.86349 41.9163 11.056H43.9163C43.9163 10.5845 44.0853 10.2903 44.5018 10.0515C45.0017 9.76475 45.8804 9.56 47.2682 9.56V7.56ZM41.9163 11.056V21.744H43.9163V11.056H41.9163ZM41.9163 21.744C41.9163 22.9365 42.4725 23.8903 43.5067 24.4835C44.4575 25.0287 45.7548 25.24 47.2682 25.24V23.24C45.8804 23.24 45.0017 23.0353 44.5018 22.7485C44.0853 22.5097 43.9163 22.2155 43.9163 21.744H41.9163ZM47.2682 25.24C48.7917 25.24 50.0958 25.0289 51.051 24.485C52.0899 23.8935 52.6523 22.9401 52.6523 21.744H50.6523C50.6523 22.2119 50.4839 22.5065 50.0615 22.747C49.5554 23.0351 48.6675 23.24 47.2682 23.24V25.24ZM53.2122 11.376V21.424H55.2122V11.376H53.2122ZM53.2122 21.424C53.2122 22.9269 52.6998 23.8646 51.7828 24.4553L52.8657 26.1367C54.466 25.106 55.2122 23.4625 55.2122 21.424H53.2122ZM51.793 24.4488C50.7458 25.1055 49.2761 25.48 47.3003 25.48V27.48C49.5057 27.48 51.3854 27.0652 52.8555 26.1432L51.793 24.4488ZM47.3003 25.48C45.3256 25.48 43.8413 25.106 42.7691 24.4448L41.7194 26.1472C43.2072 27.0647 45.0935 27.48 47.3003 27.48V25.48ZM42.7857 24.4553C41.8687 23.8646 41.3563 22.9269 41.3563 21.424H39.3563C39.3563 23.4625 40.1025 25.106 41.7028 26.1367L42.7857 24.4553ZM41.3563 21.424V11.376H39.3563V21.424H41.3563ZM41.3563 11.376C41.3563 9.87267 41.8682 8.95219 42.7755 8.38319L41.713 6.68881C40.103 7.69848 39.3563 9.338 39.3563 11.376H41.3563ZM42.7857 8.37671C43.8308 7.70359 45.2965 7.32 47.2682 7.32V5.32C45.0587 5.32 43.175 5.74708 41.7028 6.69528L42.7857 8.37671ZM47.2682 7.32C49.24 7.32 50.7057 7.70359 51.7508 8.37671L52.8337 6.69528C51.3615 5.74708 49.4778 5.32 47.2682 5.32V7.32ZM51.7674 8.38717C52.6954 8.95947 53.2122 9.88005 53.2122 11.376H55.2122C55.2122 9.33062 54.4491 7.6912 52.8171 6.68483L51.7674 8.38717ZM72.5742 25.296L73.1056 26.1433L73.1157 26.1367L72.5742 25.296ZM62.4943 25.296L61.9528 26.1367L61.961 26.142L61.9694 26.1472L62.4943 25.296ZM62.4943 8.016L63.0256 8.86325L63.0357 8.85671L62.4943 8.016ZM73.4622 1.136V21.424H75.4622V1.136H73.4622ZM73.4622 21.424C73.4622 22.9269 72.9498 23.8646 72.0328 24.4553L73.1157 26.1367C74.716 25.106 75.4622 23.4625 75.4622 21.424H73.4622ZM72.043 24.4488C70.9958 25.1055 69.5261 25.48 67.5502 25.48V27.48C69.7557 27.48 71.6354 27.0652 73.1055 26.1432L72.043 24.4488ZM67.5502 25.48C65.5756 25.48 64.0913 25.106 63.0191 24.4448L61.9694 26.1472C63.4572 27.0647 65.3435 27.48 67.5502 27.48V25.48ZM63.0357 24.4553C62.1187 23.8646 61.6063 22.9269 61.6063 21.424H59.6063C59.6063 23.4625 60.3525 25.106 61.9528 26.1367L63.0357 24.4553ZM61.6063 21.424V11.856H59.6063V21.424H61.6063ZM61.6063 11.856C61.6063 10.3527 62.1182 9.43219 63.0255 8.86319L61.963 7.16881C60.353 8.17848 59.6063 9.818 59.6063 11.856H61.6063ZM63.0357 8.85671C64.0808 8.18359 65.5465 7.8 67.5182 7.8V5.8C65.3087 5.8 63.425 6.22707 61.9528 7.17528L63.0357 8.85671ZM67.5182 7.8H70.3023V5.8H67.5182V7.8ZM70.3023 7.8C70.2591 7.8 70.1732 7.78912 70.0784 7.73378C69.9839 7.67866 69.9336 7.61045 69.914 7.57614C69.8979 7.54795 69.9076 7.55249 69.9199 7.61711C69.9319 7.6799 69.9423 7.77803 69.9423 7.92H71.9423C71.9423 7.48421 71.8857 6.99554 71.6505 6.58386C71.3675 6.08864 70.8779 5.8 70.3023 5.8V7.8ZM69.9423 7.92C69.9423 8.06197 69.9319 8.1601 69.9199 8.22289C69.9076 8.28751 69.8979 8.29204 69.914 8.26386C69.9336 8.22955 69.9839 8.16134 70.0784 8.10622C70.1732 8.05088 70.2591 8.04 70.3023 8.04V10.04C70.8779 10.04 71.3675 9.75136 71.6505 9.25614C71.8857 8.84446 71.9423 8.35579 71.9423 7.92H69.9423ZM70.3023 8.04H67.5182V10.04H70.3023V8.04ZM67.5182 8.04C66.0048 8.04 64.7075 8.25125 63.7567 8.79654C62.7225 9.38969 62.1663 10.3435 62.1663 11.536H64.1663C64.1663 11.0645 64.3353 10.7703 64.7518 10.5315C65.2517 10.2447 66.1304 10.04 67.5182 10.04V8.04ZM62.1663 11.536V21.744H64.1663V11.536H62.1663ZM62.1663 21.744C62.1663 22.9365 62.7225 23.8903 63.7567 24.4835C64.7075 25.0287 66.0048 25.24 67.5182 25.24V23.24C66.1304 23.24 65.2517 23.0353 64.7518 22.7485C64.3353 22.5097 64.1663 22.2155 64.1663 21.744H62.1663ZM67.5182 25.24C69.0417 25.24 70.3458 25.0289 71.301 24.485C72.3399 23.8935 72.9023 22.9401 72.9023 21.744H70.9023C70.9023 22.2119 70.7339 22.5065 70.3115 22.747C69.8054 23.0351 68.9175 23.24 67.5182 23.24V25.24ZM72.9023 21.744V1.136H70.9023V21.744H72.9023ZM72.9023 1.136C72.9023 1.16206 72.8952 1.23307 72.8474 1.31553C72.7997 1.39784 72.742 1.43865 72.7207 1.45091C72.7056 1.4596 72.7264 1.44425 72.8105 1.42812C72.8928 1.41234 73.0139 1.4 73.1823 1.4V-0.6C72.6925 -0.6 72.1628 -0.53536 71.7238 -0.282907C71.2014 0.0174799 70.9023 0.531406 70.9023 1.136H72.9023ZM73.1823 1.4C73.3506 1.4 73.4717 1.41234 73.554 1.42812C73.6381 1.44425 73.6589 1.4596 73.6438 1.45091C73.6225 1.43865 73.5648 1.39784 73.5171 1.31553C73.4693 1.23307 73.4622 1.16206 73.4622 1.136H75.4622C75.4622 0.531406 75.1631 0.0174799 74.6407 -0.282907C74.2017 -0.53536 73.672 -0.6 73.1823 -0.6V1.4ZM82.3207 24.848L81.5614 25.4988L81.5693 25.5078L82.3207 24.848ZM83.0888 3.056L83.6137 3.90723L83.6238 3.90082L83.0888 3.056ZM93.2968 3.056L92.7552 3.89678L92.7655 3.90319L93.2968 3.056ZM92.6888 13.776L92.3947 12.8202L88.8919 13.898L92.4566 14.7487L92.6888 13.776ZM93.5527 24.976L94.0714 25.8311L94.0815 25.8248L93.5527 24.976ZM84.2728 23.152L83.4567 23.73L83.4646 23.7411L83.4727 23.752L84.2728 23.152ZM88.3688 25.16H86.2247V27.16H88.3688V25.16ZM86.2247 25.16C84.5139 25.16 83.5639 24.7482 83.0722 24.1882L81.5693 25.5078C82.6136 26.6971 84.2662 27.16 86.2247 27.16V25.16ZM83.08 24.1972C82.543 23.5707 82.1687 22.4232 82.1687 20.528H80.1687C80.1687 22.6008 80.5625 24.3333 81.5615 25.4988L83.08 24.1972ZM82.1687 20.528V6.896H80.1687V20.528H82.1687ZM82.1687 6.896C82.1687 5.40005 82.6856 4.47947 83.6136 3.90717L82.5639 2.20483C80.9319 3.2112 80.1687 4.85062 80.1687 6.896H82.1687ZM83.6238 3.90082C84.6911 3.22489 86.191 2.84 88.2087 2.84V0.839998C85.9599 0.839998 84.0464 1.26577 82.5537 2.21118L83.6238 3.90082ZM88.2087 2.84C90.2279 2.84 91.7129 3.22538 92.7553 3.89672L93.8382 2.21528C92.3632 1.26528 90.4563 0.839998 88.2087 0.839998V2.84ZM92.7655 3.90319C93.6728 4.47219 94.1848 5.39267 94.1848 6.896H96.1848C96.1848 4.858 95.438 3.21848 93.828 2.20881L92.7655 3.90319ZM94.1848 6.896V9.872H96.1848V6.896H94.1848ZM94.1848 9.872C94.1848 10.792 94.001 11.435 93.7182 11.8773C93.4461 12.3029 93.0309 12.6245 92.3947 12.8202L92.9828 14.7318C94.0106 14.4155 94.8434 13.8304 95.4033 12.9547C95.9525 12.0957 96.1848 11.0427 96.1848 9.872H94.1848ZM92.4566 14.7487C93.2067 14.9277 93.6819 15.2553 93.9852 15.6827C94.2986 16.1243 94.5048 16.7805 94.5048 17.744H96.5048C96.5048 16.5101 96.2415 15.4063 95.6163 14.5253C94.9809 13.63 94.0482 13.0723 92.9209 12.8033L92.4566 14.7487ZM94.5048 17.744V21.104H96.5048V17.744H94.5048ZM94.5048 21.104C94.5048 22.5924 93.9825 23.5301 93.024 24.1272L94.0815 25.8248C95.7257 24.8005 96.5048 23.157 96.5048 21.104H94.5048ZM93.0341 24.121C91.9412 24.7839 90.4128 25.16 88.3688 25.16V27.16C90.634 27.16 92.5617 26.7467 94.0714 25.831L93.0341 24.121ZM89.4888 13.928H85.4888V15.928H89.4888V13.928ZM85.4888 13.928C85.5319 13.928 85.6178 13.9389 85.7126 13.9942C85.8071 14.0493 85.8574 14.1176 85.877 14.1519C85.8931 14.18 85.8834 14.1755 85.8711 14.1109C85.8591 14.0481 85.8487 13.95 85.8487 13.808H83.8487C83.8487 14.2438 83.9053 14.7325 84.1405 15.1441C84.4235 15.6394 84.9131 15.928 85.4888 15.928V13.928ZM85.8487 13.808C85.8487 13.666 85.8591 13.5679 85.8711 13.5051C85.8834 13.4405 85.8931 13.436 85.877 13.4641C85.8574 13.4984 85.8071 13.5667 85.7126 13.6218C85.6178 13.6771 85.5319 13.688 85.4888 13.688V11.688C84.9131 11.688 84.4235 11.9766 84.1405 12.4719C83.9053 12.8835 83.8487 13.3722 83.8487 13.808H85.8487ZM85.4888 13.688H89.1687V11.688H85.4888V13.688ZM89.1687 13.688C90.4309 13.688 91.563 13.435 92.3924 12.7592C93.261 12.0515 93.6247 11.0251 93.6247 9.872H91.6247C91.6247 10.5962 91.4125 10.9778 91.1291 11.2088C90.8065 11.4716 90.2106 11.688 89.1687 11.688V13.688ZM93.6247 9.872V6.576H91.6247V9.872H93.6247ZM93.6247 6.576C93.6247 6.00702 93.4964 5.46132 93.2065 4.97329C92.9173 4.48635 92.4994 4.11096 92.0021 3.83192C91.0378 3.29082 89.7202 3.08 88.1768 3.08V5.08C89.5987 5.08 90.505 5.28518 91.0234 5.57608C91.2674 5.71303 91.4056 5.85765 91.487 5.99471C91.5678 6.13067 91.6247 6.31298 91.6247 6.576H93.6247ZM88.1768 3.08C86.6333 3.08 85.3157 3.29082 84.3514 3.83192C83.8541 4.11096 83.4362 4.48635 83.147 4.97329C82.8571 5.46132 82.7288 6.00702 82.7288 6.576H84.7288C84.7288 6.31298 84.7857 6.13067 84.8665 5.99471C84.9479 5.85765 85.0861 5.71303 85.3301 5.57608C85.8485 5.28518 86.7548 5.08 88.1768 5.08V3.08ZM82.7288 6.576V20.528H84.7288V6.576H82.7288ZM82.7288 20.528C82.7288 21.8039 82.9043 22.9501 83.4567 23.73L85.0888 22.574C84.9159 22.3299 84.7288 21.7268 84.7288 20.528H82.7288ZM83.4727 23.752C84.1179 24.6122 85.1366 24.92 86.2247 24.92V22.92C85.4782 22.92 85.1956 22.7158 85.0728 22.552L83.4727 23.752ZM86.2247 24.92H88.3047V22.92H86.2247V24.92ZM88.3047 24.92C89.9084 24.92 91.2672 24.7099 92.2585 24.1767C92.7691 23.902 93.2026 23.5304 93.5048 23.0427C93.8087 22.5522 93.9447 22.0007 93.9447 21.424H91.9447C91.9447 21.6793 91.8874 21.8558 91.8047 21.9893C91.7202 22.1256 91.5737 22.274 91.311 22.4153C90.7556 22.7141 89.7944 22.92 88.3047 22.92V24.92ZM93.9447 21.424V17.744H91.9447V21.424H93.9447ZM93.9447 17.744C93.9447 16.5909 93.581 15.5645 92.7124 14.8568C91.883 14.181 90.7509 13.928 89.4888 13.928V15.928C90.5306 15.928 91.1265 16.1444 91.4491 16.4072C91.7325 16.6382 91.9447 17.0198 91.9447 17.744H93.9447ZM113.23 25.296L113.762 26.1433L113.772 26.1367L113.23 25.296ZM103.15 25.296L102.609 26.1367L102.617 26.142L102.626 26.1472L103.15 25.296ZM103.15 7.536L103.682 8.38325L103.692 8.37671L103.15 7.536ZM113.199 7.536L112.657 8.37671L112.665 8.38202L112.674 8.38717L113.199 7.536ZM113.559 21.744V11.056H111.559V21.744H113.559ZM113.559 11.056C113.559 9.85988 112.996 8.90647 111.957 8.31498C111.002 7.7711 109.698 7.56 108.174 7.56V9.56C109.574 9.56 110.462 9.7649 110.968 10.053C111.39 10.2935 111.559 10.5881 111.559 11.056H113.559ZM108.174 7.56C106.661 7.56 105.364 7.77125 104.413 8.31654C103.379 8.90969 102.823 9.86349 102.823 11.056H104.823C104.823 10.5845 104.992 10.2903 105.408 10.0515C105.908 9.76475 106.787 9.56 108.174 9.56V7.56ZM102.823 11.056V21.744H104.823V11.056H102.823ZM102.823 21.744C102.823 22.9365 103.379 23.8903 104.413 24.4835C105.364 25.0287 106.661 25.24 108.174 25.24V23.24C106.787 23.24 105.908 23.0353 105.408 22.7485C104.992 22.5097 104.823 22.2155 104.823 21.744H102.823ZM108.174 25.24C109.698 25.24 111.002 25.0289 111.957 24.485C112.996 23.8935 113.559 22.9401 113.559 21.744H111.559C111.559 22.2119 111.39 22.5065 110.968 22.747C110.462 23.0351 109.574 23.24 108.174 23.24V25.24ZM114.118 11.376V21.424H116.118V11.376H114.118ZM114.118 21.424C114.118 22.9269 113.606 23.8646 112.689 24.4553L113.772 26.1367C115.372 25.106 116.118 23.4625 116.118 21.424H114.118ZM112.699 24.4488C111.652 25.1055 110.182 25.48 108.206 25.48V27.48C110.412 27.48 112.292 27.0652 113.762 26.1432L112.699 24.4488ZM108.206 25.48C106.232 25.48 104.748 25.106 103.675 24.4448L102.626 26.1472C104.113 27.0647 106 27.48 108.206 27.48V25.48ZM103.692 24.4553C102.775 23.8646 102.262 22.9269 102.262 21.424H100.262C100.262 23.4625 101.009 25.106 102.609 26.1367L103.692 24.4553ZM102.262 21.424V11.376H100.262V21.424H102.262ZM102.262 11.376C102.262 9.87267 102.774 8.95219 103.682 8.38319L102.619 6.68881C101.009 7.69848 100.262 9.338 100.262 11.376H102.262ZM103.692 8.37671C104.737 7.70359 106.203 7.32 108.174 7.32V5.32C105.965 5.32 104.081 5.74708 102.609 6.69528L103.692 8.37671ZM108.174 7.32C110.146 7.32 111.612 7.70359 112.657 8.37671L113.74 6.69528C112.268 5.74708 110.384 5.32 108.174 5.32V7.32ZM112.674 8.38717C113.602 8.95947 114.118 9.88005 114.118 11.376H116.118C116.118 9.33062 115.355 7.6912 113.723 6.68483L112.674 8.38717ZM133.48 25.296L134.012 26.1433L134.022 26.1367L133.48 25.296ZM123.4 25.296L122.859 26.1367L122.867 26.142L122.876 26.1472L123.4 25.296ZM123.4 7.536L123.932 8.38325L123.942 8.37671L123.4 7.536ZM133.449 7.536L132.907 8.37671L132.915 8.38202L132.924 8.38717L133.449 7.536ZM133.809 21.744V11.056H131.809V21.744H133.809ZM133.809 11.056C133.809 9.85988 133.246 8.90647 132.207 8.31498C131.252 7.7711 129.948 7.56 128.424 7.56V9.56C129.824 9.56 130.712 9.7649 131.218 10.053C131.64 10.2935 131.809 10.5881 131.809 11.056H133.809ZM128.424 7.56C126.911 7.56 125.614 7.77125 124.663 8.31654C123.629 8.90969 123.073 9.86349 123.073 11.056H125.073C125.073 10.5845 125.242 10.2903 125.658 10.0515C126.158 9.76475 127.037 9.56 128.424 9.56V7.56ZM123.073 11.056V21.744H125.073V11.056H123.073ZM123.073 21.744C123.073 22.9365 123.629 23.8903 124.663 24.4835C125.614 25.0287 126.911 25.24 128.424 25.24V23.24C127.037 23.24 126.158 23.0353 125.658 22.7485C125.242 22.5097 125.073 22.2155 125.073 21.744H123.073ZM128.424 25.24C129.948 25.24 131.252 25.0289 132.207 24.485C133.246 23.8935 133.809 22.9401 133.809 21.744H131.809C131.809 22.2119 131.64 22.5065 131.218 22.747C130.712 23.0351 129.824 23.24 128.424 23.24V25.24ZM134.368 11.376V21.424H136.368V11.376H134.368ZM134.368 21.424C134.368 22.9269 133.856 23.8646 132.939 24.4553L134.022 26.1367C135.622 25.106 136.368 23.4625 136.368 21.424H134.368ZM132.949 24.4488C131.902 25.1055 130.432 25.48 128.456 25.48V27.48C130.662 27.48 132.542 27.0652 134.012 26.1432L132.949 24.4488ZM128.456 25.48C126.482 25.48 124.998 25.106 123.925 24.4448L122.876 26.1472C124.363 27.0647 126.25 27.48 128.456 27.48V25.48ZM123.942 24.4553C123.025 23.8646 122.512 22.9269 122.512 21.424H120.512C120.512 23.4625 121.259 25.106 122.859 26.1367L123.942 24.4553ZM122.512 21.424V11.376H120.512V21.424H122.512ZM122.512 11.376C122.512 9.87267 123.024 8.95219 123.932 8.38319L122.869 6.68881C121.259 7.69848 120.512 9.338 120.512 11.376H122.512ZM123.942 8.37671C124.987 7.70359 126.453 7.32 128.424 7.32V5.32C126.215 5.32 124.331 5.74708 122.859 6.69528L123.942 8.37671ZM128.424 7.32C130.396 7.32 131.862 7.70359 132.907 8.37671L133.99 6.69528C132.518 5.74708 130.634 5.32 128.424 5.32V7.32ZM132.924 8.38717C133.852 8.95947 134.368 9.88005 134.368 11.376H136.368C136.368 9.33062 135.605 7.6912 133.973 6.68483L132.924 8.38717ZM153.314 25.424L152.354 25.7031L152.358 25.7152L153.314 25.424ZM151.426 18.928L150.465 19.2027L150.466 19.2071L151.426 18.928ZM150.594 17.52L150.04 18.352L150.071 18.373L150.104 18.3916L150.594 17.52ZM147.587 14.96V15.96H147.598L147.61 15.9597L147.587 14.96ZM149.346 14.64L149.916 15.4622L149.936 15.4479L149.956 15.4326L149.346 14.64ZM150.146 13.232L149.207 12.8882L149.204 12.8992L150.146 13.232ZM152.29 7.376L153.23 7.7198L153.232 7.71218L153.235 7.70452L152.29 7.376ZM154.434 8.208L155.378 8.53948L155.381 8.53188L155.383 8.52423L154.434 8.208ZM152.355 14.128L153.295 14.4667L153.298 14.4595L152.355 14.128ZM151.555 15.344L150.924 14.5679L149.563 15.674L151.208 16.282L151.555 15.344ZM153.635 18.032L152.672 18.3048L152.673 18.3079L153.635 18.032ZM155.555 24.72L156.52 24.46L156.518 24.452L156.516 24.4441L155.555 24.72ZM143.643 1.136V25.424H145.643V1.136H143.643ZM143.643 25.424C143.643 25.3979 143.65 25.3269 143.697 25.2445C143.745 25.1622 143.803 25.1213 143.824 25.1091C143.839 25.1004 143.818 25.1158 143.734 25.1319C143.652 25.1477 143.531 25.16 143.363 25.16V27.16C143.852 27.16 144.382 27.0954 144.821 26.8429C145.343 26.5425 145.643 26.0286 145.643 25.424H143.643ZM143.363 25.16C143.194 25.16 143.073 25.1477 142.991 25.1319C142.907 25.1158 142.886 25.1004 142.901 25.1091C142.922 25.1213 142.98 25.1622 143.028 25.2445C143.075 25.3269 143.083 25.3979 143.083 25.424H141.083C141.083 26.0286 141.382 26.5425 141.904 26.8429C142.343 27.0954 142.873 27.16 143.363 27.16V25.16ZM143.083 25.424V1.136H141.083V25.424H143.083ZM143.083 1.136C143.083 1.16206 143.075 1.23307 143.028 1.31553C142.98 1.39784 142.922 1.43865 142.901 1.45091C142.886 1.4596 142.907 1.44425 142.991 1.42812C143.073 1.41234 143.194 1.4 143.363 1.4V-0.6C142.873 -0.6 142.343 -0.53536 141.904 -0.282907C141.382 0.0174804 141.083 0.531407 141.083 1.136H143.083ZM143.363 1.4C143.531 1.4 143.652 1.41234 143.734 1.42812C143.818 1.44425 143.839 1.4596 143.824 1.45091C143.803 1.43865 143.745 1.39784 143.697 1.31553C143.65 1.23307 143.643 1.16206 143.643 1.136H145.643C145.643 0.531407 145.343 0.0174799 144.821 -0.282907C144.382 -0.53536 143.852 -0.6 143.363 -0.6V1.4ZM154.779 25.584C154.779 25.5107 154.799 25.4009 154.869 25.2921C154.937 25.1882 155.014 25.1408 155.041 25.1267C155.064 25.1149 155.052 25.1259 154.98 25.1384C154.91 25.1504 154.805 25.16 154.659 25.16V27.16C155.085 27.16 155.557 27.1106 155.956 26.9053C156.17 26.7952 156.387 26.6278 156.548 26.3799C156.712 26.1271 156.779 25.8493 156.779 25.584H154.779ZM154.659 25.16C154.381 25.16 154.267 25.1122 154.243 25.0989C154.236 25.095 154.246 25.0995 154.259 25.1158C154.272 25.1321 154.274 25.1422 154.271 25.1328L152.358 25.7152C152.508 26.2094 152.828 26.6043 153.282 26.8531C153.706 27.0851 154.189 27.16 154.659 27.16V25.16ZM154.275 25.1449L152.387 18.6489L150.466 19.2071L152.354 25.7031L154.275 25.1449ZM152.388 18.6533C152.164 17.87 151.797 17.0489 151.085 16.6484L150.104 18.3916C150.073 18.374 150.115 18.385 150.198 18.5247C150.279 18.6623 150.373 18.8798 150.465 19.2027L152.388 18.6533ZM151.149 16.688C150.797 16.4531 150.349 16.3487 149.946 16.2903C149.512 16.2275 148.988 16.2 148.387 16.2V18.2C148.938 18.2 149.357 18.2259 149.659 18.2697C149.992 18.318 150.072 18.3735 150.04 18.352L151.149 16.688ZM148.387 16.2H146.37V18.2H148.387V16.2ZM146.37 16.2C146.414 16.2 146.499 16.2109 146.594 16.2662C146.689 16.3213 146.739 16.3896 146.759 16.4239C146.775 16.452 146.765 16.4475 146.753 16.3829C146.741 16.3201 146.73 16.222 146.73 16.08H144.73C144.73 16.5158 144.787 17.0045 145.022 17.4161C145.305 17.9114 145.795 18.2 146.37 18.2V16.2ZM146.73 16.08C146.73 15.938 146.741 15.8399 146.753 15.7771C146.765 15.7125 146.775 15.708 146.759 15.7361C146.739 15.7704 146.689 15.8387 146.594 15.8938C146.499 15.9491 146.414 15.96 146.37 15.96V13.96C145.795 13.96 145.305 14.2486 145.022 14.7439C144.787 15.1555 144.73 15.6442 144.73 16.08H146.73ZM146.37 15.96H147.587V13.96H146.37V15.96ZM147.61 15.9597C148.087 15.9484 148.514 15.9139 148.877 15.8479C149.219 15.7857 149.602 15.6793 149.916 15.4622L148.777 13.8178C148.814 13.7927 148.764 13.8356 148.52 13.8801C148.296 13.9208 147.982 13.9503 147.563 13.9603L147.61 15.9597ZM149.956 15.4326C150.486 15.0254 150.83 14.3008 151.089 13.5648L149.204 12.8992C149.088 13.2274 148.98 13.4673 148.885 13.634C148.786 13.8092 148.728 13.8538 148.737 13.8474L149.956 15.4326ZM151.086 13.5758L153.23 7.7198L151.351 7.0322L149.207 12.8882L151.086 13.5758ZM153.235 7.70452C153.241 7.68754 153.243 7.68898 153.236 7.69745C153.229 7.70614 153.225 7.70665 153.235 7.7011C153.263 7.68585 153.373 7.64 153.635 7.64V5.64C153.17 5.64 152.694 5.71681 152.274 5.9469C151.829 6.19083 151.511 6.57251 151.346 7.04748L153.235 7.70452ZM153.635 7.64C153.781 7.64 153.886 7.64962 153.956 7.66162C154.028 7.67406 154.04 7.68509 154.017 7.67329C153.99 7.65917 153.913 7.61178 153.845 7.5079C153.775 7.39911 153.755 7.28931 153.755 7.216H155.755C155.755 6.95069 155.688 6.67289 155.524 6.4201C155.363 6.17222 155.146 6.00483 154.932 5.89471C154.533 5.68944 154.061 5.64 153.635 5.64V7.64ZM153.755 7.216C153.755 7.13337 153.765 7.06976 153.767 7.05713C153.771 7.03334 153.775 7.01517 153.777 7.00669C153.781 6.98928 153.784 6.97784 153.784 6.97759C153.785 6.97541 153.783 6.98134 153.777 6.99999C153.767 7.03535 153.749 7.09196 153.723 7.173C153.671 7.33359 153.592 7.57256 153.486 7.89177L155.383 8.52423C155.49 8.20344 155.571 7.95707 155.626 7.787C155.653 7.7027 155.676 7.63265 155.692 7.58001C155.699 7.55465 155.708 7.52625 155.715 7.49941C155.718 7.48683 155.724 7.46547 155.729 7.44056C155.732 7.42833 155.737 7.40701 155.741 7.38068C155.743 7.36551 155.755 7.29997 155.755 7.216H153.755ZM153.491 7.87651L151.411 13.7965L153.298 14.4595L155.378 8.53948L153.491 7.87651ZM151.414 13.7893C151.266 14.1999 151.089 14.4341 150.924 14.5679L152.185 16.1201C152.703 15.6992 153.059 15.1228 153.295 14.4667L151.414 13.7893ZM151.208 16.282C151.777 16.4923 152.315 17.0454 152.672 18.3048L154.597 17.7592C154.143 16.16 153.295 14.921 151.901 14.406L151.208 16.282ZM152.673 18.3079L154.593 24.9959L156.516 24.4441L154.596 17.7561L152.673 18.3079ZM154.589 24.98C154.663 25.2565 154.718 25.4636 154.755 25.603C154.773 25.6733 154.785 25.7222 154.792 25.7526C154.796 25.7687 154.797 25.7734 154.797 25.771C154.797 25.7704 154.794 25.7604 154.792 25.7452C154.791 25.7376 154.788 25.7226 154.786 25.7031C154.784 25.6902 154.779 25.644 154.779 25.584H156.779C156.779 25.5227 156.773 25.4746 156.771 25.4593C156.768 25.4375 156.765 25.4195 156.763 25.4086C156.76 25.3866 156.756 25.3676 156.753 25.356C156.748 25.3316 156.742 25.306 156.737 25.2834C156.725 25.2364 156.71 25.1747 156.69 25.101C156.652 24.9524 156.595 24.7382 156.52 24.46L154.589 24.98ZM173.909 16.016L173.234 15.278L173.909 16.016ZM169.812 17.328L169.716 16.3326L169.716 16.3327L169.812 17.328ZM163.572 17.936L163.476 16.9407L162.572 17.0287V17.936H163.572ZM162.932 25.264L162.397 26.1088L162.404 26.1128L162.932 25.264ZM163.061 7.536L163.561 8.40179L163.571 8.39585L163.061 7.536ZM173.365 7.472L173.934 6.64981L173.365 7.472ZM163.572 15.696H162.572V16.8022L163.673 16.6909L163.572 15.696ZM169.589 15.088L169.689 16.0829L169.693 16.0825L169.589 15.088ZM171.924 14.32L171.197 13.6334L171.187 13.6444L171.177 13.6556L171.924 14.32ZM174.029 11.312V12.272H176.029V11.312H174.029ZM174.029 12.272C174.029 14.0109 173.659 14.8895 173.234 15.278L174.583 16.754C175.652 15.7772 176.029 14.1597 176.029 12.272H174.029ZM173.234 15.278C172.741 15.7284 171.661 16.1445 169.716 16.3326L169.909 18.3233C171.932 18.1275 173.583 17.6689 174.583 16.754L173.234 15.278ZM169.716 16.3327L163.476 16.9407L163.669 18.9313L169.909 18.3233L169.716 16.3327ZM162.572 17.936V21.744H164.572V17.936H162.572ZM162.572 21.744C162.572 22.9148 163.093 23.8704 164.098 24.4735C165.022 25.0277 166.278 25.24 167.732 25.24V23.24C166.413 23.24 165.59 23.0363 165.127 22.7585C164.745 22.5296 164.572 22.2372 164.572 21.744H162.572ZM167.732 25.24C169.356 25.24 170.715 25.0584 171.702 24.6047C172.208 24.3721 172.658 24.0492 172.982 23.6032C173.313 23.1467 173.469 22.6199 173.469 22.064H171.469C171.469 22.2334 171.427 22.3413 171.363 22.4288C171.292 22.5268 171.15 22.6573 170.867 22.7873C170.276 23.059 169.266 23.24 167.732 23.24V25.24ZM173.469 22.064V20.848H171.469V22.064H173.469ZM173.469 20.848C173.469 20.8741 173.461 20.9451 173.414 21.0275C173.366 21.1098 173.308 21.1507 173.287 21.1629C173.272 21.1716 173.293 21.1562 173.377 21.1401C173.459 21.1243 173.58 21.112 173.749 21.112V19.112C173.259 19.112 172.729 19.1766 172.29 19.4291C171.768 19.7295 171.469 20.2434 171.469 20.848H173.469ZM173.749 21.112C173.917 21.112 174.038 21.1243 174.12 21.1401C174.204 21.1562 174.225 21.1716 174.21 21.1629C174.189 21.1507 174.131 21.1098 174.083 21.0275C174.036 20.9451 174.029 20.8741 174.029 20.848H176.029C176.029 20.2434 175.729 19.7295 175.207 19.4291C174.768 19.1766 174.238 19.112 173.749 19.112V21.112ZM174.029 20.848V21.744H176.029V20.848H174.029ZM174.029 21.744C174.029 23.0352 173.572 23.8867 172.71 24.4663C171.778 25.0932 170.254 25.48 167.988 25.48V27.48C170.416 27.48 172.412 27.0775 173.827 26.1257C175.312 25.1266 176.029 23.6101 176.029 21.744H174.029ZM167.988 25.48C166.043 25.48 164.558 25.0982 163.461 24.4152L162.404 26.1128C163.91 27.0511 165.796 27.48 167.988 27.48V25.48ZM163.468 24.4192C162.526 23.8228 162.012 22.8929 162.012 21.424H160.012C160.012 23.4538 160.779 25.0838 162.397 26.1088L163.468 24.4192ZM162.012 21.424V11.376H160.012V21.424H162.012ZM162.012 11.376C162.012 9.90958 162.548 8.98741 163.561 8.40173L162.56 6.67026C160.842 7.66325 160.012 9.30109 160.012 11.376H162.012ZM163.571 8.39585C164.734 7.70558 166.321 7.32 168.404 7.32V5.32C166.093 5.32 164.118 5.74508 162.55 6.67614L163.571 8.39585ZM168.404 7.32C170.515 7.32 171.929 7.69413 172.795 8.29419L173.934 6.64981C172.582 5.71387 170.689 5.32 168.404 5.32V7.32ZM172.795 8.29419C173.55 8.81674 174.029 9.72948 174.029 11.312H176.029C176.029 9.31052 175.398 7.66325 173.934 6.64981L172.795 8.29419ZM162.572 11.056V15.696H164.572V11.056H162.572ZM163.673 16.6909L169.689 16.0829L169.488 14.0931L163.472 14.7011L163.673 16.6909ZM169.693 16.0825C170.341 16.0143 170.916 15.9081 171.397 15.75C171.864 15.5965 172.334 15.3647 172.672 14.9844L171.177 13.6556C171.18 13.6528 171.159 13.6765 171.09 13.7158C171.022 13.7549 170.919 13.8017 170.772 13.85C170.474 13.9479 170.052 14.0337 169.484 14.0935L169.693 16.0825ZM172.652 15.0066C173.289 14.3319 173.469 13.3132 173.469 12.272H171.469C171.469 13.1935 171.286 13.5401 171.197 13.6334L172.652 15.0066ZM173.469 12.272V11.056H171.469V12.272H173.469ZM173.469 11.056C173.469 10.487 173.34 9.94132 173.05 9.45329C172.761 8.96635 172.343 8.59097 171.846 8.31192C170.882 7.77082 169.564 7.56 168.021 7.56V9.56C169.442 9.56 170.349 9.76518 170.867 10.0561C171.111 10.193 171.249 10.3377 171.331 10.4747C171.412 10.6107 171.469 10.793 171.469 11.056H173.469ZM168.021 7.56C166.477 7.56 165.159 7.77082 164.195 8.31192C163.698 8.59097 163.28 8.96635 162.991 9.45329C162.701 9.94132 162.572 10.487 162.572 11.056H164.572C164.572 10.793 164.629 10.6107 164.71 10.4747C164.792 10.3377 164.93 10.193 165.174 10.0561C165.692 9.76518 166.599 9.56 168.021 9.56V7.56ZM193.387 25.296L193.918 26.1433L193.928 26.1367L193.387 25.296ZM183.307 25.296L182.765 26.1367L182.774 26.142L182.782 26.1472L183.307 25.296ZM183.307 8.016L183.838 8.86325L183.848 8.85671L183.307 8.016ZM194.275 1.136V21.424H196.275V1.136H194.275ZM194.275 21.424C194.275 22.9269 193.762 23.8646 192.845 24.4553L193.928 26.1367C195.529 25.106 196.275 23.4625 196.275 21.424H194.275ZM192.855 24.4488C191.808 25.1055 190.339 25.48 188.363 25.48V27.48C190.568 27.48 192.448 27.0652 193.918 26.1432L192.855 24.4488ZM188.363 25.48C186.388 25.48 184.904 25.106 183.832 24.4448L182.782 26.1472C184.27 27.0647 186.156 27.48 188.363 27.48V25.48ZM183.848 24.4553C182.931 23.8646 182.419 22.9269 182.419 21.424H180.419C180.419 23.4625 181.165 25.106 182.765 26.1367L183.848 24.4553ZM182.419 21.424V11.856H180.419V21.424H182.419ZM182.419 11.856C182.419 10.3527 182.931 9.43219 183.838 8.86319L182.775 7.16881C181.165 8.17848 180.419 9.818 180.419 11.856H182.419ZM183.848 8.85671C184.893 8.18359 186.359 7.8 188.331 7.8V5.8C186.121 5.8 184.237 6.22707 182.765 7.17528L183.848 8.85671ZM188.331 7.8H191.115V5.8H188.331V7.8ZM191.115 7.8C191.072 7.8 190.986 7.78912 190.891 7.73378C190.796 7.67866 190.746 7.61045 190.727 7.57614C190.71 7.54795 190.72 7.55249 190.732 7.61711C190.744 7.6799 190.755 7.77803 190.755 7.92H192.755C192.755 7.48421 192.698 6.99554 192.463 6.58386C192.18 6.08864 191.69 5.8 191.115 5.8V7.8ZM190.755 7.92C190.755 8.06197 190.744 8.1601 190.732 8.22289C190.72 8.28751 190.71 8.29204 190.727 8.26386C190.746 8.22955 190.796 8.16134 190.891 8.10622C190.986 8.05088 191.072 8.04 191.115 8.04V10.04C191.69 10.04 192.18 9.75136 192.463 9.25614C192.698 8.84446 192.755 8.35579 192.755 7.92H190.755ZM191.115 8.04H188.331V10.04H191.115V8.04ZM188.331 8.04C186.817 8.04 185.52 8.25125 184.569 8.79654C183.535 9.38969 182.979 10.3435 182.979 11.536H184.979C184.979 11.0645 185.148 10.7703 185.564 10.5315C186.064 10.2447 186.943 10.04 188.331 10.04V8.04ZM182.979 11.536V21.744H184.979V11.536H182.979ZM182.979 21.744C182.979 22.9365 183.535 23.8903 184.569 24.4835C185.52 25.0287 186.817 25.24 188.331 25.24V23.24C186.943 23.24 186.064 23.0353 185.564 22.7485C185.148 22.5097 184.979 22.2155 184.979 21.744H182.979ZM188.331 25.24C189.854 25.24 191.158 25.0289 192.114 24.485C193.152 23.8935 193.715 22.9401 193.715 21.744H191.715C191.715 22.2119 191.546 22.5065 191.124 22.747C190.618 23.0351 189.73 23.24 188.331 23.24V25.24ZM193.715 21.744V1.136H191.715V21.744H193.715ZM193.715 1.136C193.715 1.16206 193.708 1.23307 193.66 1.31553C193.612 1.39784 193.555 1.43865 193.533 1.45091C193.518 1.4596 193.539 1.44425 193.623 1.42812C193.705 1.41234 193.826 1.4 193.995 1.4V-0.6C193.505 -0.6 192.975 -0.53536 192.536 -0.282907C192.014 0.0174799 191.715 0.531406 191.715 1.136H193.715ZM193.995 1.4C194.163 1.4 194.284 1.41234 194.367 1.42812C194.451 1.44425 194.471 1.4596 194.456 1.45091C194.435 1.43865 194.377 1.39784 194.33 1.31553C194.282 1.23307 194.275 1.16206 194.275 1.136H196.275C196.275 0.531406 195.976 0.0174799 195.453 -0.282907C195.014 -0.53536 194.484 -0.6 193.995 -0.6V1.4Z" fill="white" mask="url(#path-1-outside-1_77_1573)"/>
<path d="M7.29875 14.928V13.928H6.29875V14.928H7.29875ZM5.89075 3.664L6.64224 4.32385L6.65001 4.31479L5.89075 3.664ZM7.84275 5.328L7.04275 4.728L7.03459 4.73888L7.02673 4.74998L7.84275 5.328ZM7.29875 12.688H6.29875V13.688H7.29875V12.688ZM14.6588 13.928H7.29875V15.928H14.6588V13.928ZM6.29875 14.928V25.424H8.29875V14.928H6.29875ZM6.29875 25.424C6.29875 25.3979 6.30581 25.3269 6.35361 25.2445C6.40133 25.1622 6.45896 25.1213 6.48028 25.1091C6.49541 25.1004 6.47464 25.1158 6.39051 25.1319C6.30817 25.1477 6.1871 25.16 6.01875 25.16V27.16C6.50848 27.16 7.03817 27.0954 7.47722 26.8429C7.99963 26.5425 8.29875 26.0286 8.29875 25.424H6.29875ZM6.01875 25.16C5.8504 25.16 5.72933 25.1477 5.64699 25.1319C5.56286 25.1158 5.5421 25.1004 5.55722 25.1091C5.57854 25.1213 5.63618 25.1622 5.68389 25.2445C5.73169 25.3269 5.73875 25.3979 5.73875 25.424H3.73875C3.73875 26.0286 4.03787 26.5425 4.56028 26.8429C4.99933 27.0954 5.52902 27.16 6.01875 27.16V25.16ZM5.73875 25.424V7.952H3.73875V25.424H5.73875ZM5.73875 7.952C5.73875 6.05359 6.11428 4.92503 6.64219 4.3238L5.13931 3.0042C4.13122 4.1523 3.73875 5.88241 3.73875 7.952H5.73875ZM6.65001 4.31479C7.1434 3.73917 8.09039 3.32 9.79475 3.32V1.32C7.82978 1.32 6.1741 1.79683 5.13149 3.01321L6.65001 4.31479ZM9.79475 3.32H15.9388V1.32H9.79475V3.32ZM15.9388 3.32C15.8956 3.32 15.8098 3.30912 15.7149 3.25378C15.6204 3.19866 15.5701 3.13045 15.5505 3.09614C15.5344 3.06796 15.5441 3.07249 15.5564 3.13711C15.5684 3.1999 15.5788 3.29803 15.5788 3.44H17.5788C17.5788 3.00421 17.5222 2.51554 17.287 2.10386C17.004 1.60863 16.5144 1.32 15.9388 1.32V3.32ZM15.5788 3.44C15.5788 3.58197 15.5684 3.6801 15.5564 3.74289C15.5441 3.80751 15.5344 3.81204 15.5505 3.78386C15.5701 3.74955 15.6204 3.68134 15.7149 3.62622C15.8098 3.57088 15.8956 3.56 15.9388 3.56V5.56C16.5144 5.56 17.004 5.27136 17.287 4.77614C17.5222 4.36446 17.5788 3.87579 17.5788 3.44H15.5788ZM15.9388 3.56H9.79475V5.56H15.9388V3.56ZM9.79475 3.56C8.70662 3.56 7.68788 3.86782 7.04275 4.728L8.64275 5.928C8.76562 5.76418 9.04821 5.56 9.79475 5.56V3.56ZM7.02673 4.74998C6.47428 5.5299 6.29875 6.6761 6.29875 7.952H8.29875C8.29875 6.75323 8.48589 6.1501 8.65877 5.90602L7.02673 4.74998ZM6.29875 7.952V12.688H8.29875V7.952H6.29875ZM7.29875 13.688H14.6588V11.688H7.29875V13.688ZM14.6588 13.688C14.6156 13.688 14.5298 13.6771 14.4349 13.6218C14.3404 13.5667 14.2901 13.4984 14.2705 13.4641C14.2544 13.436 14.2641 13.4405 14.2764 13.5051C14.2884 13.5679 14.2988 13.666 14.2988 13.808H16.2988C16.2988 13.3722 16.2422 12.8835 16.007 12.4719C15.724 11.9766 15.2344 11.688 14.6588 11.688V13.688ZM14.2988 13.808C14.2988 13.95 14.2884 14.0481 14.2764 14.1109C14.2641 14.1755 14.2544 14.18 14.2705 14.1519C14.2901 14.1176 14.3404 14.0493 14.4349 13.9942C14.5298 13.9389 14.6156 13.928 14.6588 13.928V15.928C15.2344 15.928 15.724 15.6394 16.007 15.1441C16.2422 14.7325 16.2988 14.2438 16.2988 13.808H14.2988ZM32.0743 25.296L32.6056 26.1433L32.6157 26.1367L32.0743 25.296ZM21.9943 25.296L21.4528 26.1367L21.461 26.142L21.4694 26.1472L21.9943 25.296ZM21.9943 7.536L22.5256 8.38325L22.5357 8.37671L21.9943 7.536ZM32.0423 7.536L31.5008 8.37671L31.509 8.38202L31.5174 8.38717L32.0423 7.536ZM32.4023 21.744V11.056H30.4023V21.744H32.4023ZM32.4023 11.056C32.4023 9.85988 31.8399 8.90647 30.801 8.31498C29.8458 7.7711 28.5417 7.56 27.0182 7.56V9.56C28.4175 9.56 29.3054 9.7649 29.8115 10.053C30.2339 10.2935 30.4023 10.5881 30.4023 11.056H32.4023ZM27.0182 7.56C25.5048 7.56 24.2075 7.77125 23.2567 8.31654C22.2225 8.90969 21.6663 9.86349 21.6663 11.056H23.6663C23.6663 10.5845 23.8353 10.2903 24.2518 10.0515C24.7517 9.76475 25.6304 9.56 27.0182 9.56V7.56ZM21.6663 11.056V21.744H23.6663V11.056H21.6663ZM21.6663 21.744C21.6663 22.9365 22.2225 23.8903 23.2567 24.4835C24.2075 25.0287 25.5048 25.24 27.0182 25.24V23.24C25.6304 23.24 24.7517 23.0353 24.2518 22.7485C23.8353 22.5097 23.6663 22.2155 23.6663 21.744H21.6663ZM27.0182 25.24C28.5417 25.24 29.8458 25.0289 30.801 24.485C31.8399 23.8935 32.4023 22.9401 32.4023 21.744H30.4023C30.4023 22.2119 30.2339 22.5065 29.8115 22.747C29.3054 23.0351 28.4175 23.24 27.0182 23.24V25.24ZM32.9623 11.376V21.424H34.9622V11.376H32.9623ZM32.9623 21.424C32.9623 22.9269 32.4498 23.8646 31.5328 24.4553L32.6157 26.1367C34.216 25.106 34.9622 23.4625 34.9622 21.424H32.9623ZM31.543 24.4488C30.4958 25.1055 29.0261 25.48 27.0503 25.48V27.48C29.2557 27.48 31.1354 27.0652 32.6055 26.1432L31.543 24.4488ZM27.0503 25.48C25.0756 25.48 23.5913 25.106 22.5191 24.4448L21.4694 26.1472C22.9572 27.0647 24.8435 27.48 27.0503 27.48V25.48ZM22.5357 24.4553C21.6187 23.8646 21.1063 22.9269 21.1063 21.424H19.1063C19.1063 23.4625 19.8525 25.106 21.4528 26.1367L22.5357 24.4553ZM21.1063 21.424V11.376H19.1063V21.424H21.1063ZM21.1063 11.376C21.1063 9.87267 21.6182 8.95219 22.5255 8.38319L21.463 6.68881C19.853 7.69848 19.1063 9.338 19.1063 11.376H21.1063ZM22.5357 8.37671C23.5808 7.70359 25.0465 7.32 27.0182 7.32V5.32C24.8087 5.32 22.925 5.74708 21.4528 6.69528L22.5357 8.37671ZM27.0182 7.32C28.99 7.32 30.4557 7.70359 31.5008 8.37671L32.5837 6.69528C31.1115 5.74708 29.2278 5.32 27.0182 5.32V7.32ZM31.5174 8.38717C32.4454 8.95947 32.9623 9.88005 32.9623 11.376H34.9622C34.9622 9.33062 34.1991 7.6912 32.5671 6.68483L31.5174 8.38717ZM52.3242 25.296L52.8556 26.1433L52.8657 26.1367L52.3242 25.296ZM42.2443 25.296L41.7028 26.1367L41.711 26.142L41.7194 26.1472L42.2443 25.296ZM42.2443 7.536L42.7756 8.38325L42.7857 8.37671L42.2443 7.536ZM52.2923 7.536L51.7508 8.37671L51.759 8.38202L51.7674 8.38717L52.2923 7.536ZM52.6523 21.744V11.056H50.6523V21.744H52.6523ZM52.6523 11.056C52.6523 9.85988 52.0899 8.90647 51.051 8.31498C50.0958 7.7711 48.7917 7.56 47.2682 7.56V9.56C48.6675 9.56 49.5554 9.7649 50.0615 10.053C50.4839 10.2935 50.6523 10.5881 50.6523 11.056H52.6523ZM47.2682 7.56C45.7548 7.56 44.4575 7.77125 43.5067 8.31654C42.4725 8.90969 41.9163 9.86349 41.9163 11.056H43.9163C43.9163 10.5845 44.0853 10.2903 44.5018 10.0515C45.0017 9.76475 45.8804 9.56 47.2682 9.56V7.56ZM41.9163 11.056V21.744H43.9163V11.056H41.9163ZM41.9163 21.744C41.9163 22.9365 42.4725 23.8903 43.5067 24.4835C44.4575 25.0287 45.7548 25.24 47.2682 25.24V23.24C45.8804 23.24 45.0017 23.0353 44.5018 22.7485C44.0853 22.5097 43.9163 22.2155 43.9163 21.744H41.9163ZM47.2682 25.24C48.7917 25.24 50.0958 25.0289 51.051 24.485C52.0899 23.8935 52.6523 22.9401 52.6523 21.744H50.6523C50.6523 22.2119 50.4839 22.5065 50.0615 22.747C49.5554 23.0351 48.6675 23.24 47.2682 23.24V25.24ZM53.2122 11.376V21.424H55.2122V11.376H53.2122ZM53.2122 21.424C53.2122 22.9269 52.6998 23.8646 51.7828 24.4553L52.8657 26.1367C54.466 25.106 55.2122 23.4625 55.2122 21.424H53.2122ZM51.793 24.4488C50.7458 25.1055 49.2761 25.48 47.3003 25.48V27.48C49.5057 27.48 51.3854 27.0652 52.8555 26.1432L51.793 24.4488ZM47.3003 25.48C45.3256 25.48 43.8413 25.106 42.7691 24.4448L41.7194 26.1472C43.2072 27.0647 45.0935 27.48 47.3003 27.48V25.48ZM42.7857 24.4553C41.8687 23.8646 41.3563 22.9269 41.3563 21.424H39.3563C39.3563 23.4625 40.1025 25.106 41.7028 26.1367L42.7857 24.4553ZM41.3563 21.424V11.376H39.3563V21.424H41.3563ZM41.3563 11.376C41.3563 9.87267 41.8682 8.95219 42.7755 8.38319L41.713 6.68881C40.103 7.69848 39.3563 9.338 39.3563 11.376H41.3563ZM42.7857 8.37671C43.8308 7.70359 45.2965 7.32 47.2682 7.32V5.32C45.0587 5.32 43.175 5.74708 41.7028 6.69528L42.7857 8.37671ZM47.2682 7.32C49.24 7.32 50.7057 7.70359 51.7508 8.37671L52.8337 6.69528C51.3615 5.74708 49.4778 5.32 47.2682 5.32V7.32ZM51.7674 8.38717C52.6954 8.95947 53.2122 9.88005 53.2122 11.376H55.2122C55.2122 9.33062 54.4491 7.6912 52.8171 6.68483L51.7674 8.38717ZM72.5742 25.296L73.1056 26.1433L73.1157 26.1367L72.5742 25.296ZM62.4943 25.296L61.9528 26.1367L61.961 26.142L61.9694 26.1472L62.4943 25.296ZM62.4943 8.016L63.0256 8.86325L63.0357 8.85671L62.4943 8.016ZM73.4622 1.136V21.424H75.4622V1.136H73.4622ZM73.4622 21.424C73.4622 22.9269 72.9498 23.8646 72.0328 24.4553L73.1157 26.1367C74.716 25.106 75.4622 23.4625 75.4622 21.424H73.4622ZM72.043 24.4488C70.9958 25.1055 69.5261 25.48 67.5502 25.48V27.48C69.7557 27.48 71.6354 27.0652 73.1055 26.1432L72.043 24.4488ZM67.5502 25.48C65.5756 25.48 64.0913 25.106 63.0191 24.4448L61.9694 26.1472C63.4572 27.0647 65.3435 27.48 67.5502 27.48V25.48ZM63.0357 24.4553C62.1187 23.8646 61.6063 22.9269 61.6063 21.424H59.6063C59.6063 23.4625 60.3525 25.106 61.9528 26.1367L63.0357 24.4553ZM61.6063 21.424V11.856H59.6063V21.424H61.6063ZM61.6063 11.856C61.6063 10.3527 62.1182 9.43219 63.0255 8.86319L61.963 7.16881C60.353 8.17848 59.6063 9.818 59.6063 11.856H61.6063ZM63.0357 8.85671C64.0808 8.18359 65.5465 7.8 67.5182 7.8V5.8C65.3087 5.8 63.425 6.22707 61.9528 7.17528L63.0357 8.85671ZM67.5182 7.8H70.3023V5.8H67.5182V7.8ZM70.3023 7.8C70.2591 7.8 70.1732 7.78912 70.0784 7.73378C69.9839 7.67866 69.9336 7.61045 69.914 7.57614C69.8979 7.54795 69.9076 7.55249 69.9199 7.61711C69.9319 7.6799 69.9423 7.77803 69.9423 7.92H71.9423C71.9423 7.48421 71.8857 6.99554 71.6505 6.58386C71.3675 6.08864 70.8779 5.8 70.3023 5.8V7.8ZM69.9423 7.92C69.9423 8.06197 69.9319 8.1601 69.9199 8.22289C69.9076 8.28751 69.8979 8.29204 69.914 8.26386C69.9336 8.22955 69.9839 8.16134 70.0784 8.10622C70.1732 8.05088 70.2591 8.04 70.3023 8.04V10.04C70.8779 10.04 71.3675 9.75136 71.6505 9.25614C71.8857 8.84446 71.9423 8.35579 71.9423 7.92H69.9423ZM70.3023 8.04H67.5182V10.04H70.3023V8.04ZM67.5182 8.04C66.0048 8.04 64.7075 8.25125 63.7567 8.79654C62.7225 9.38969 62.1663 10.3435 62.1663 11.536H64.1663C64.1663 11.0645 64.3353 10.7703 64.7518 10.5315C65.2517 10.2447 66.1304 10.04 67.5182 10.04V8.04ZM62.1663 11.536V21.744H64.1663V11.536H62.1663ZM62.1663 21.744C62.1663 22.9365 62.7225 23.8903 63.7567 24.4835C64.7075 25.0287 66.0048 25.24 67.5182 25.24V23.24C66.1304 23.24 65.2517 23.0353 64.7518 22.7485C64.3353 22.5097 64.1663 22.2155 64.1663 21.744H62.1663ZM67.5182 25.24C69.0417 25.24 70.3458 25.0289 71.301 24.485C72.3399 23.8935 72.9023 22.9401 72.9023 21.744H70.9023C70.9023 22.2119 70.7339 22.5065 70.3115 22.747C69.8054 23.0351 68.9175 23.24 67.5182 23.24V25.24ZM72.9023 21.744V1.136H70.9023V21.744H72.9023ZM72.9023 1.136C72.9023 1.16206 72.8952 1.23307 72.8474 1.31553C72.7997 1.39784 72.742 1.43865 72.7207 1.45091C72.7056 1.4596 72.7264 1.44425 72.8105 1.42812C72.8928 1.41234 73.0139 1.4 73.1823 1.4V-0.6C72.6925 -0.6 72.1628 -0.53536 71.7238 -0.282907C71.2014 0.0174799 70.9023 0.531406 70.9023 1.136H72.9023ZM73.1823 1.4C73.3506 1.4 73.4717 1.41234 73.554 1.42812C73.6381 1.44425 73.6589 1.4596 73.6438 1.45091C73.6225 1.43865 73.5648 1.39784 73.5171 1.31553C73.4693 1.23307 73.4622 1.16206 73.4622 1.136H75.4622C75.4622 0.531406 75.1631 0.0174799 74.6407 -0.282907C74.2017 -0.53536 73.672 -0.6 73.1823 -0.6V1.4ZM82.3207 24.848L81.5614 25.4988L81.5693 25.5078L82.3207 24.848ZM83.0888 3.056L83.6137 3.90723L83.6238 3.90082L83.0888 3.056ZM93.2968 3.056L92.7552 3.89678L92.7655 3.90319L93.2968 3.056ZM92.6888 13.776L92.3947 12.8202L88.8919 13.898L92.4566 14.7487L92.6888 13.776ZM93.5527 24.976L94.0714 25.8311L94.0815 25.8248L93.5527 24.976ZM84.2728 23.152L83.4567 23.73L83.4646 23.7411L83.4727 23.752L84.2728 23.152ZM88.3688 25.16H86.2247V27.16H88.3688V25.16ZM86.2247 25.16C84.5139 25.16 83.5639 24.7482 83.0722 24.1882L81.5693 25.5078C82.6136 26.6971 84.2662 27.16 86.2247 27.16V25.16ZM83.08 24.1972C82.543 23.5707 82.1687 22.4232 82.1687 20.528H80.1687C80.1687 22.6008 80.5625 24.3333 81.5615 25.4988L83.08 24.1972ZM82.1687 20.528V6.896H80.1687V20.528H82.1687ZM82.1687 6.896C82.1687 5.40005 82.6856 4.47947 83.6136 3.90717L82.5639 2.20483C80.9319 3.2112 80.1687 4.85062 80.1687 6.896H82.1687ZM83.6238 3.90082C84.6911 3.22489 86.191 2.84 88.2087 2.84V0.839998C85.9599 0.839998 84.0464 1.26577 82.5537 2.21118L83.6238 3.90082ZM88.2087 2.84C90.2279 2.84 91.7129 3.22538 92.7553 3.89672L93.8382 2.21528C92.3632 1.26528 90.4563 0.839998 88.2087 0.839998V2.84ZM92.7655 3.90319C93.6728 4.47219 94.1848 5.39267 94.1848 6.896H96.1848C96.1848 4.858 95.438 3.21848 93.828 2.20881L92.7655 3.90319ZM94.1848 6.896V9.872H96.1848V6.896H94.1848ZM94.1848 9.872C94.1848 10.792 94.001 11.435 93.7182 11.8773C93.4461 12.3029 93.0309 12.6245 92.3947 12.8202L92.9828 14.7318C94.0106 14.4155 94.8434 13.8304 95.4033 12.9547C95.9525 12.0957 96.1848 11.0427 96.1848 9.872H94.1848ZM92.4566 14.7487C93.2067 14.9277 93.6819 15.2553 93.9852 15.6827C94.2986 16.1243 94.5048 16.7805 94.5048 17.744H96.5048C96.5048 16.5101 96.2415 15.4063 95.6163 14.5253C94.9809 13.63 94.0482 13.0723 92.9209 12.8033L92.4566 14.7487ZM94.5048 17.744V21.104H96.5048V17.744H94.5048ZM94.5048 21.104C94.5048 22.5924 93.9825 23.5301 93.024 24.1272L94.0815 25.8248C95.7257 24.8005 96.5048 23.157 96.5048 21.104H94.5048ZM93.0341 24.121C91.9412 24.7839 90.4128 25.16 88.3688 25.16V27.16C90.634 27.16 92.5617 26.7467 94.0714 25.831L93.0341 24.121ZM89.4888 13.928H85.4888V15.928H89.4888V13.928ZM85.4888 13.928C85.5319 13.928 85.6178 13.9389 85.7126 13.9942C85.8071 14.0493 85.8574 14.1176 85.877 14.1519C85.8931 14.18 85.8834 14.1755 85.8711 14.1109C85.8591 14.0481 85.8487 13.95 85.8487 13.808H83.8487C83.8487 14.2438 83.9053 14.7325 84.1405 15.1441C84.4235 15.6394 84.9131 15.928 85.4888 15.928V13.928ZM85.8487 13.808C85.8487 13.666 85.8591 13.5679 85.8711 13.5051C85.8834 13.4405 85.8931 13.436 85.877 13.4641C85.8574 13.4984 85.8071 13.5667 85.7126 13.6218C85.6178 13.6771 85.5319 13.688 85.4888 13.688V11.688C84.9131 11.688 84.4235 11.9766 84.1405 12.4719C83.9053 12.8835 83.8487 13.3722 83.8487 13.808H85.8487ZM85.4888 13.688H89.1687V11.688H85.4888V13.688ZM89.1687 13.688C90.4309 13.688 91.563 13.435 92.3924 12.7592C93.261 12.0515 93.6247 11.0251 93.6247 9.872H91.6247C91.6247 10.5962 91.4125 10.9778 91.1291 11.2088C90.8065 11.4716 90.2106 11.688 89.1687 11.688V13.688ZM93.6247 9.872V6.576H91.6247V9.872H93.6247ZM93.6247 6.576C93.6247 6.00702 93.4964 5.46132 93.2065 4.97329C92.9173 4.48635 92.4994 4.11096 92.0021 3.83192C91.0378 3.29082 89.7202 3.08 88.1768 3.08V5.08C89.5987 5.08 90.505 5.28518 91.0234 5.57608C91.2674 5.71303 91.4056 5.85765 91.487 5.99471C91.5678 6.13067 91.6247 6.31298 91.6247 6.576H93.6247ZM88.1768 3.08C86.6333 3.08 85.3157 3.29082 84.3514 3.83192C83.8541 4.11096 83.4362 4.48635 83.147 4.97329C82.8571 5.46132 82.7288 6.00702 82.7288 6.576H84.7288C84.7288 6.31298 84.7857 6.13067 84.8665 5.99471C84.9479 5.85765 85.0861 5.71303 85.3301 5.57608C85.8485 5.28518 86.7548 5.08 88.1768 5.08V3.08ZM82.7288 6.576V20.528H84.7288V6.576H82.7288ZM82.7288 20.528C82.7288 21.8039 82.9043 22.9501 83.4567 23.73L85.0888 22.574C84.9159 22.3299 84.7288 21.7268 84.7288 20.528H82.7288ZM83.4727 23.752C84.1179 24.6122 85.1366 24.92 86.2247 24.92V22.92C85.4782 22.92 85.1956 22.7158 85.0728 22.552L83.4727 23.752ZM86.2247 24.92H88.3047V22.92H86.2247V24.92ZM88.3047 24.92C89.9084 24.92 91.2672 24.7099 92.2585 24.1767C92.7691 23.902 93.2026 23.5304 93.5048 23.0427C93.8087 22.5522 93.9447 22.0007 93.9447 21.424H91.9447C91.9447 21.6793 91.8874 21.8558 91.8047 21.9893C91.7202 22.1256 91.5737 22.274 91.311 22.4153C90.7556 22.7141 89.7944 22.92 88.3047 22.92V24.92ZM93.9447 21.424V17.744H91.9447V21.424H93.9447ZM93.9447 17.744C93.9447 16.5909 93.581 15.5645 92.7124 14.8568C91.883 14.181 90.7509 13.928 89.4888 13.928V15.928C90.5306 15.928 91.1265 16.1444 91.4491 16.4072C91.7325 16.6382 91.9447 17.0198 91.9447 17.744H93.9447ZM113.23 25.296L113.762 26.1433L113.772 26.1367L113.23 25.296ZM103.15 25.296L102.609 26.1367L102.617 26.142L102.626 26.1472L103.15 25.296ZM103.15 7.536L103.682 8.38325L103.692 8.37671L103.15 7.536ZM113.199 7.536L112.657 8.37671L112.665 8.38202L112.674 8.38717L113.199 7.536ZM113.559 21.744V11.056H111.559V21.744H113.559ZM113.559 11.056C113.559 9.85988 112.996 8.90647 111.957 8.31498C111.002 7.7711 109.698 7.56 108.174 7.56V9.56C109.574 9.56 110.462 9.7649 110.968 10.053C111.39 10.2935 111.559 10.5881 111.559 11.056H113.559ZM108.174 7.56C106.661 7.56 105.364 7.77125 104.413 8.31654C103.379 8.90969 102.823 9.86349 102.823 11.056H104.823C104.823 10.5845 104.992 10.2903 105.408 10.0515C105.908 9.76475 106.787 9.56 108.174 9.56V7.56ZM102.823 11.056V21.744H104.823V11.056H102.823ZM102.823 21.744C102.823 22.9365 103.379 23.8903 104.413 24.4835C105.364 25.0287 106.661 25.24 108.174 25.24V23.24C106.787 23.24 105.908 23.0353 105.408 22.7485C104.992 22.5097 104.823 22.2155 104.823 21.744H102.823ZM108.174 25.24C109.698 25.24 111.002 25.0289 111.957 24.485C112.996 23.8935 113.559 22.9401 113.559 21.744H111.559C111.559 22.2119 111.39 22.5065 110.968 22.747C110.462 23.0351 109.574 23.24 108.174 23.24V25.24ZM114.118 11.376V21.424H116.118V11.376H114.118ZM114.118 21.424C114.118 22.9269 113.606 23.8646 112.689 24.4553L113.772 26.1367C115.372 25.106 116.118 23.4625 116.118 21.424H114.118ZM112.699 24.4488C111.652 25.1055 110.182 25.48 108.206 25.48V27.48C110.412 27.48 112.292 27.0652 113.762 26.1432L112.699 24.4488ZM108.206 25.48C106.232 25.48 104.748 25.106 103.675 24.4448L102.626 26.1472C104.113 27.0647 106 27.48 108.206 27.48V25.48ZM103.692 24.4553C102.775 23.8646 102.262 22.9269 102.262 21.424H100.262C100.262 23.4625 101.009 25.106 102.609 26.1367L103.692 24.4553ZM102.262 21.424V11.376H100.262V21.424H102.262ZM102.262 11.376C102.262 9.87267 102.774 8.95219 103.682 8.38319L102.619 6.68881C101.009 7.69848 100.262 9.338 100.262 11.376H102.262ZM103.692 8.37671C104.737 7.70359 106.203 7.32 108.174 7.32V5.32C105.965 5.32 104.081 5.74708 102.609 6.69528L103.692 8.37671ZM108.174 7.32C110.146 7.32 111.612 7.70359 112.657 8.37671L113.74 6.69528C112.268 5.74708 110.384 5.32 108.174 5.32V7.32ZM112.674 8.38717C113.602 8.95947 114.118 9.88005 114.118 11.376H116.118C116.118 9.33062 115.355 7.6912 113.723 6.68483L112.674 8.38717ZM133.48 25.296L134.012 26.1433L134.022 26.1367L133.48 25.296ZM123.4 25.296L122.859 26.1367L122.867 26.142L122.876 26.1472L123.4 25.296ZM123.4 7.536L123.932 8.38325L123.942 8.37671L123.4 7.536ZM133.449 7.536L132.907 8.37671L132.915 8.38202L132.924 8.38717L133.449 7.536ZM133.809 21.744V11.056H131.809V21.744H133.809ZM133.809 11.056C133.809 9.85988 133.246 8.90647 132.207 8.31498C131.252 7.7711 129.948 7.56 128.424 7.56V9.56C129.824 9.56 130.712 9.7649 131.218 10.053C131.64 10.2935 131.809 10.5881 131.809 11.056H133.809ZM128.424 7.56C126.911 7.56 125.614 7.77125 124.663 8.31654C123.629 8.90969 123.073 9.86349 123.073 11.056H125.073C125.073 10.5845 125.242 10.2903 125.658 10.0515C126.158 9.76475 127.037 9.56 128.424 9.56V7.56ZM123.073 11.056V21.744H125.073V11.056H123.073ZM123.073 21.744C123.073 22.9365 123.629 23.8903 124.663 24.4835C125.614 25.0287 126.911 25.24 128.424 25.24V23.24C127.037 23.24 126.158 23.0353 125.658 22.7485C125.242 22.5097 125.073 22.2155 125.073 21.744H123.073ZM128.424 25.24C129.948 25.24 131.252 25.0289 132.207 24.485C133.246 23.8935 133.809 22.9401 133.809 21.744H131.809C131.809 22.2119 131.64 22.5065 131.218 22.747C130.712 23.0351 129.824 23.24 128.424 23.24V25.24ZM134.368 11.376V21.424H136.368V11.376H134.368ZM134.368 21.424C134.368 22.9269 133.856 23.8646 132.939 24.4553L134.022 26.1367C135.622 25.106 136.368 23.4625 136.368 21.424H134.368ZM132.949 24.4488C131.902 25.1055 130.432 25.48 128.456 25.48V27.48C130.662 27.48 132.542 27.0652 134.012 26.1432L132.949 24.4488ZM128.456 25.48C126.482 25.48 124.998 25.106 123.925 24.4448L122.876 26.1472C124.363 27.0647 126.25 27.48 128.456 27.48V25.48ZM123.942 24.4553C123.025 23.8646 122.512 22.9269 122.512 21.424H120.512C120.512 23.4625 121.259 25.106 122.859 26.1367L123.942 24.4553ZM122.512 21.424V11.376H120.512V21.424H122.512ZM122.512 11.376C122.512 9.87267 123.024 8.95219 123.932 8.38319L122.869 6.68881C121.259 7.69848 120.512 9.338 120.512 11.376H122.512ZM123.942 8.37671C124.987 7.70359 126.453 7.32 128.424 7.32V5.32C126.215 5.32 124.331 5.74708 122.859 6.69528L123.942 8.37671ZM128.424 7.32C130.396 7.32 131.862 7.70359 132.907 8.37671L133.99 6.69528C132.518 5.74708 130.634 5.32 128.424 5.32V7.32ZM132.924 8.38717C133.852 8.95947 134.368 9.88005 134.368 11.376H136.368C136.368 9.33062 135.605 7.6912 133.973 6.68483L132.924 8.38717ZM153.314 25.424L152.354 25.7031L152.358 25.7152L153.314 25.424ZM151.426 18.928L150.465 19.2027L150.466 19.2071L151.426 18.928ZM150.594 17.52L150.04 18.352L150.071 18.373L150.104 18.3916L150.594 17.52ZM147.587 14.96V15.96H147.598L147.61 15.9597L147.587 14.96ZM149.346 14.64L149.916 15.4622L149.936 15.4479L149.956 15.4326L149.346 14.64ZM150.146 13.232L149.207 12.8882L149.204 12.8992L150.146 13.232ZM152.29 7.376L153.23 7.7198L153.232 7.71218L153.235 7.70452L152.29 7.376ZM154.434 8.208L155.378 8.53948L155.381 8.53188L155.383 8.52423L154.434 8.208ZM152.355 14.128L153.295 14.4667L153.298 14.4595L152.355 14.128ZM151.555 15.344L150.924 14.5679L149.563 15.674L151.208 16.282L151.555 15.344ZM153.635 18.032L152.672 18.3048L152.673 18.3079L153.635 18.032ZM155.555 24.72L156.52 24.46L156.518 24.452L156.516 24.4441L155.555 24.72ZM143.643 1.136V25.424H145.643V1.136H143.643ZM143.643 25.424C143.643 25.3979 143.65 25.3269 143.697 25.2445C143.745 25.1622 143.803 25.1213 143.824 25.1091C143.839 25.1004 143.818 25.1158 143.734 25.1319C143.652 25.1477 143.531 25.16 143.363 25.16V27.16C143.852 27.16 144.382 27.0954 144.821 26.8429C145.343 26.5425 145.643 26.0286 145.643 25.424H143.643ZM143.363 25.16C143.194 25.16 143.073 25.1477 142.991 25.1319C142.907 25.1158 142.886 25.1004 142.901 25.1091C142.922 25.1213 142.98 25.1622 143.028 25.2445C143.075 25.3269 143.083 25.3979 143.083 25.424H141.083C141.083 26.0286 141.382 26.5425 141.904 26.8429C142.343 27.0954 142.873 27.16 143.363 27.16V25.16ZM143.083 25.424V1.136H141.083V25.424H143.083ZM143.083 1.136C143.083 1.16206 143.075 1.23307 143.028 1.31553C142.98 1.39784 142.922 1.43865 142.901 1.45091C142.886 1.4596 142.907 1.44425 142.991 1.42812C143.073 1.41234 143.194 1.4 143.363 1.4V-0.6C142.873 -0.6 142.343 -0.53536 141.904 -0.282907C141.382 0.0174804 141.083 0.531407 141.083 1.136H143.083ZM143.363 1.4C143.531 1.4 143.652 1.41234 143.734 1.42812C143.818 1.44425 143.839 1.4596 143.824 1.45091C143.803 1.43865 143.745 1.39784 143.697 1.31553C143.65 1.23307 143.643 1.16206 143.643 1.136H145.643C145.643 0.531407 145.343 0.0174799 144.821 -0.282907C144.382 -0.53536 143.852 -0.6 143.363 -0.6V1.4ZM154.779 25.584C154.779 25.5107 154.799 25.4009 154.869 25.2921C154.937 25.1882 155.014 25.1408 155.041 25.1267C155.064 25.1149 155.052 25.1259 154.98 25.1384C154.91 25.1504 154.805 25.16 154.659 25.16V27.16C155.085 27.16 155.557 27.1106 155.956 26.9053C156.17 26.7952 156.387 26.6278 156.548 26.3799C156.712 26.1271 156.779 25.8493 156.779 25.584H154.779ZM154.659 25.16C154.381 25.16 154.267 25.1122 154.243 25.0989C154.236 25.095 154.246 25.0995 154.259 25.1158C154.272 25.1321 154.274 25.1422 154.271 25.1328L152.358 25.7152C152.508 26.2094 152.828 26.6043 153.282 26.8531C153.706 27.0851 154.189 27.16 154.659 27.16V25.16ZM154.275 25.1449L152.387 18.6489L150.466 19.2071L152.354 25.7031L154.275 25.1449ZM152.388 18.6533C152.164 17.87 151.797 17.0489 151.085 16.6484L150.104 18.3916C150.073 18.374 150.115 18.385 150.198 18.5247C150.279 18.6623 150.373 18.8798 150.465 19.2027L152.388 18.6533ZM151.149 16.688C150.797 16.4531 150.349 16.3487 149.946 16.2903C149.512 16.2275 148.988 16.2 148.387 16.2V18.2C148.938 18.2 149.357 18.2259 149.659 18.2697C149.992 18.318 150.072 18.3735 150.04 18.352L151.149 16.688ZM148.387 16.2H146.37V18.2H148.387V16.2ZM146.37 16.2C146.414 16.2 146.499 16.2109 146.594 16.2662C146.689 16.3213 146.739 16.3896 146.759 16.4239C146.775 16.452 146.765 16.4475 146.753 16.3829C146.741 16.3201 146.73 16.222 146.73 16.08H144.73C144.73 16.5158 144.787 17.0045 145.022 17.4161C145.305 17.9114 145.795 18.2 146.37 18.2V16.2ZM146.73 16.08C146.73 15.938 146.741 15.8399 146.753 15.7771C146.765 15.7125 146.775 15.708 146.759 15.7361C146.739 15.7704 146.689 15.8387 146.594 15.8938C146.499 15.9491 146.414 15.96 146.37 15.96V13.96C145.795 13.96 145.305 14.2486 145.022 14.7439C144.787 15.1555 144.73 15.6442 144.73 16.08H146.73ZM146.37 15.96H147.587V13.96H146.37V15.96ZM147.61 15.9597C148.087 15.9484 148.514 15.9139 148.877 15.8479C149.219 15.7857 149.602 15.6793 149.916 15.4622L148.777 13.8178C148.814 13.7927 148.764 13.8356 148.52 13.8801C148.296 13.9208 147.982 13.9503 147.563 13.9603L147.61 15.9597ZM149.956 15.4326C150.486 15.0254 150.83 14.3008 151.089 13.5648L149.204 12.8992C149.088 13.2274 148.98 13.4673 148.885 13.634C148.786 13.8092 148.728 13.8538 148.737 13.8474L149.956 15.4326ZM151.086 13.5758L153.23 7.7198L151.351 7.0322L149.207 12.8882L151.086 13.5758ZM153.235 7.70452C153.241 7.68754 153.243 7.68898 153.236 7.69745C153.229 7.70614 153.225 7.70665 153.235 7.7011C153.263 7.68585 153.373 7.64 153.635 7.64V5.64C153.17 5.64 152.694 5.71681 152.274 5.9469C151.829 6.19083 151.511 6.57251 151.346 7.04748L153.235 7.70452ZM153.635 7.64C153.781 7.64 153.886 7.64962 153.956 7.66162C154.028 7.67406 154.04 7.68509 154.017 7.67329C153.99 7.65917 153.913 7.61178 153.845 7.5079C153.775 7.39911 153.755 7.28931 153.755 7.216H155.755C155.755 6.95069 155.688 6.67289 155.524 6.4201C155.363 6.17222 155.146 6.00483 154.932 5.89471C154.533 5.68944 154.061 5.64 153.635 5.64V7.64ZM153.755 7.216C153.755 7.13337 153.765 7.06976 153.767 7.05713C153.771 7.03334 153.775 7.01517 153.777 7.00669C153.781 6.98928 153.784 6.97784 153.784 6.97759C153.785 6.97541 153.783 6.98134 153.777 6.99999C153.767 7.03535 153.749 7.09196 153.723 7.173C153.671 7.33359 153.592 7.57256 153.486 7.89177L155.383 8.52423C155.49 8.20344 155.571 7.95707 155.626 7.787C155.653 7.7027 155.676 7.63265 155.692 7.58001C155.699 7.55465 155.708 7.52625 155.715 7.49941C155.718 7.48683 155.724 7.46547 155.729 7.44056C155.732 7.42833 155.737 7.40701 155.741 7.38068C155.743 7.36551 155.755 7.29997 155.755 7.216H153.755ZM153.491 7.87651L151.411 13.7965L153.298 14.4595L155.378 8.53948L153.491 7.87651ZM151.414 13.7893C151.266 14.1999 151.089 14.4341 150.924 14.5679L152.185 16.1201C152.703 15.6992 153.059 15.1228 153.295 14.4667L151.414 13.7893ZM151.208 16.282C151.777 16.4923 152.315 17.0454 152.672 18.3048L154.597 17.7592C154.143 16.16 153.295 14.921 151.901 14.406L151.208 16.282ZM152.673 18.3079L154.593 24.9959L156.516 24.4441L154.596 17.7561L152.673 18.3079ZM154.589 24.98C154.663 25.2565 154.718 25.4636 154.755 25.603C154.773 25.6733 154.785 25.7222 154.792 25.7526C154.796 25.7687 154.797 25.7734 154.797 25.771C154.797 25.7704 154.794 25.7604 154.792 25.7452C154.791 25.7376 154.788 25.7226 154.786 25.7031C154.784 25.6902 154.779 25.644 154.779 25.584H156.779C156.779 25.5227 156.773 25.4746 156.771 25.4593C156.768 25.4375 156.765 25.4195 156.763 25.4086C156.76 25.3866 156.756 25.3676 156.753 25.356C156.748 25.3316 156.742 25.306 156.737 25.2834C156.725 25.2364 156.71 25.1747 156.69 25.101C156.652 24.9524 156.595 24.7382 156.52 24.46L154.589 24.98ZM173.909 16.016L173.234 15.278L173.909 16.016ZM169.812 17.328L169.716 16.3326L169.716 16.3327L169.812 17.328ZM163.572 17.936L163.476 16.9407L162.572 17.0287V17.936H163.572ZM162.932 25.264L162.397 26.1088L162.404 26.1128L162.932 25.264ZM163.061 7.536L163.561 8.40179L163.571 8.39585L163.061 7.536ZM173.365 7.472L173.934 6.64981L173.365 7.472ZM163.572 15.696H162.572V16.8022L163.673 16.6909L163.572 15.696ZM169.589 15.088L169.689 16.0829L169.693 16.0825L169.589 15.088ZM171.924 14.32L171.197 13.6334L171.187 13.6444L171.177 13.6556L171.924 14.32ZM174.029 11.312V12.272H176.029V11.312H174.029ZM174.029 12.272C174.029 14.0109 173.659 14.8895 173.234 15.278L174.583 16.754C175.652 15.7772 176.029 14.1597 176.029 12.272H174.029ZM173.234 15.278C172.741 15.7284 171.661 16.1445 169.716 16.3326L169.909 18.3233C171.932 18.1275 173.583 17.6689 174.583 16.754L173.234 15.278ZM169.716 16.3327L163.476 16.9407L163.669 18.9313L169.909 18.3233L169.716 16.3327ZM162.572 17.936V21.744H164.572V17.936H162.572ZM162.572 21.744C162.572 22.9148 163.093 23.8704 164.098 24.4735C165.022 25.0277 166.278 25.24 167.732 25.24V23.24C166.413 23.24 165.59 23.0363 165.127 22.7585C164.745 22.5296 164.572 22.2372 164.572 21.744H162.572ZM167.732 25.24C169.356 25.24 170.715 25.0584 171.702 24.6047C172.208 24.3721 172.658 24.0492 172.982 23.6032C173.313 23.1467 173.469 22.6199 173.469 22.064H171.469C171.469 22.2334 171.427 22.3413 171.363 22.4288C171.292 22.5268 171.15 22.6573 170.867 22.7873C170.276 23.059 169.266 23.24 167.732 23.24V25.24ZM173.469 22.064V20.848H171.469V22.064H173.469ZM173.469 20.848C173.469 20.8741 173.461 20.9451 173.414 21.0275C173.366 21.1098 173.308 21.1507 173.287 21.1629C173.272 21.1716 173.293 21.1562 173.377 21.1401C173.459 21.1243 173.58 21.112 173.749 21.112V19.112C173.259 19.112 172.729 19.1766 172.29 19.4291C171.768 19.7295 171.469 20.2434 171.469 20.848H173.469ZM173.749 21.112C173.917 21.112 174.038 21.1243 174.12 21.1401C174.204 21.1562 174.225 21.1716 174.21 21.1629C174.189 21.1507 174.131 21.1098 174.083 21.0275C174.036 20.9451 174.029 20.8741 174.029 20.848H176.029C176.029 20.2434 175.729 19.7295 175.207 19.4291C174.768 19.1766 174.238 19.112 173.749 19.112V21.112ZM174.029 20.848V21.744H176.029V20.848H174.029ZM174.029 21.744C174.029 23.0352 173.572 23.8867 172.71 24.4663C171.778 25.0932 170.254 25.48 167.988 25.48V27.48C170.416 27.48 172.412 27.0775 173.827 26.1257C175.312 25.1266 176.029 23.6101 176.029 21.744H174.029ZM167.988 25.48C166.043 25.48 164.558 25.0982 163.461 24.4152L162.404 26.1128C163.91 27.0511 165.796 27.48 167.988 27.48V25.48ZM163.468 24.4192C162.526 23.8228 162.012 22.8929 162.012 21.424H160.012C160.012 23.4538 160.779 25.0838 162.397 26.1088L163.468 24.4192ZM162.012 21.424V11.376H160.012V21.424H162.012ZM162.012 11.376C162.012 9.90958 162.548 8.98741 163.561 8.40173L162.56 6.67026C160.842 7.66325 160.012 9.30109 160.012 11.376H162.012ZM163.571 8.39585C164.734 7.70558 166.321 7.32 168.404 7.32V5.32C166.093 5.32 164.118 5.74508 162.55 6.67614L163.571 8.39585ZM168.404 7.32C170.515 7.32 171.929 7.69413 172.795 8.29419L173.934 6.64981C172.582 5.71387 170.689 5.32 168.404 5.32V7.32ZM172.795 8.29419C173.55 8.81674 174.029 9.72948 174.029 11.312H176.029C176.029 9.31052 175.398 7.66325 173.934 6.64981L172.795 8.29419ZM162.572 11.056V15.696H164.572V11.056H162.572ZM163.673 16.6909L169.689 16.0829L169.488 14.0931L163.472 14.7011L163.673 16.6909ZM169.693 16.0825C170.341 16.0143 170.916 15.9081 171.397 15.75C171.864 15.5965 172.334 15.3647 172.672 14.9844L171.177 13.6556C171.18 13.6528 171.159 13.6765 171.09 13.7158C171.022 13.7549 170.919 13.8017 170.772 13.85C170.474 13.9479 170.052 14.0337 169.484 14.0935L169.693 16.0825ZM172.652 15.0066C173.289 14.3319 173.469 13.3132 173.469 12.272H171.469C171.469 13.1935 171.286 13.5401 171.197 13.6334L172.652 15.0066ZM173.469 12.272V11.056H171.469V12.272H173.469ZM173.469 11.056C173.469 10.487 173.34 9.94132 173.05 9.45329C172.761 8.96635 172.343 8.59097 171.846 8.31192C170.882 7.77082 169.564 7.56 168.021 7.56V9.56C169.442 9.56 170.349 9.76518 170.867 10.0561C171.111 10.193 171.249 10.3377 171.331 10.4747C171.412 10.6107 171.469 10.793 171.469 11.056H173.469ZM168.021 7.56C166.477 7.56 165.159 7.77082 164.195 8.31192C163.698 8.59097 163.28 8.96635 162.991 9.45329C162.701 9.94132 162.572 10.487 162.572 11.056H164.572C164.572 10.793 164.629 10.6107 164.71 10.4747C164.792 10.3377 164.93 10.193 165.174 10.0561C165.692 9.76518 166.599 9.56 168.021 9.56V7.56ZM193.387 25.296L193.918 26.1433L193.928 26.1367L193.387 25.296ZM183.307 25.296L182.765 26.1367L182.774 26.142L182.782 26.1472L183.307 25.296ZM183.307 8.016L183.838 8.86325L183.848 8.85671L183.307 8.016ZM194.275 1.136V21.424H196.275V1.136H194.275ZM194.275 21.424C194.275 22.9269 193.762 23.8646 192.845 24.4553L193.928 26.1367C195.529 25.106 196.275 23.4625 196.275 21.424H194.275ZM192.855 24.4488C191.808 25.1055 190.339 25.48 188.363 25.48V27.48C190.568 27.48 192.448 27.0652 193.918 26.1432L192.855 24.4488ZM188.363 25.48C186.388 25.48 184.904 25.106 183.832 24.4448L182.782 26.1472C184.27 27.0647 186.156 27.48 188.363 27.48V25.48ZM183.848 24.4553C182.931 23.8646 182.419 22.9269 182.419 21.424H180.419C180.419 23.4625 181.165 25.106 182.765 26.1367L183.848 24.4553ZM182.419 21.424V11.856H180.419V21.424H182.419ZM182.419 11.856C182.419 10.3527 182.931 9.43219 183.838 8.86319L182.775 7.16881C181.165 8.17848 180.419 9.818 180.419 11.856H182.419ZM183.848 8.85671C184.893 8.18359 186.359 7.8 188.331 7.8V5.8C186.121 5.8 184.237 6.22707 182.765 7.17528L183.848 8.85671ZM188.331 7.8H191.115V5.8H188.331V7.8ZM191.115 7.8C191.072 7.8 190.986 7.78912 190.891 7.73378C190.796 7.67866 190.746 7.61045 190.727 7.57614C190.71 7.54795 190.72 7.55249 190.732 7.61711C190.744 7.6799 190.755 7.77803 190.755 7.92H192.755C192.755 7.48421 192.698 6.99554 192.463 6.58386C192.18 6.08864 191.69 5.8 191.115 5.8V7.8ZM190.755 7.92C190.755 8.06197 190.744 8.1601 190.732 8.22289C190.72 8.28751 190.71 8.29204 190.727 8.26386C190.746 8.22955 190.796 8.16134 190.891 8.10622C190.986 8.05088 191.072 8.04 191.115 8.04V10.04C191.69 10.04 192.18 9.75136 192.463 9.25614C192.698 8.84446 192.755 8.35579 192.755 7.92H190.755ZM191.115 8.04H188.331V10.04H191.115V8.04ZM188.331 8.04C186.817 8.04 185.52 8.25125 184.569 8.79654C183.535 9.38969 182.979 10.3435 182.979 11.536H184.979C184.979 11.0645 185.148 10.7703 185.564 10.5315C186.064 10.2447 186.943 10.04 188.331 10.04V8.04ZM182.979 11.536V21.744H184.979V11.536H182.979ZM182.979 21.744C182.979 22.9365 183.535 23.8903 184.569 24.4835C185.52 25.0287 186.817 25.24 188.331 25.24V23.24C186.943 23.24 186.064 23.0353 185.564 22.7485C185.148 22.5097 184.979 22.2155 184.979 21.744H182.979ZM188.331 25.24C189.854 25.24 191.158 25.0289 192.114 24.485C193.152 23.8935 193.715 22.9401 193.715 21.744H191.715C191.715 22.2119 191.546 22.5065 191.124 22.747C190.618 23.0351 189.73 23.24 188.331 23.24V25.24ZM193.715 21.744V1.136H191.715V21.744H193.715ZM193.715 1.136C193.715 1.16206 193.708 1.23307 193.66 1.31553C193.612 1.39784 193.555 1.43865 193.533 1.45091C193.518 1.4596 193.539 1.44425 193.623 1.42812C193.705 1.41234 193.826 1.4 193.995 1.4V-0.6C193.505 -0.6 192.975 -0.53536 192.536 -0.282907C192.014 0.0174799 191.715 0.531406 191.715 1.136H193.715ZM193.995 1.4C194.163 1.4 194.284 1.41234 194.367 1.42812C194.451 1.44425 194.471 1.4596 194.456 1.45091C194.435 1.43865 194.377 1.39784 194.33 1.31553C194.282 1.23307 194.275 1.16206 194.275 1.136H196.275C196.275 0.531406 195.976 0.0174799 195.453 -0.282907C195.014 -0.53536 194.484 -0.6 193.995 -0.6V1.4Z" fill="white" mask="url(#path-1-outside-1_77_1573)"/>
</g>
<defs>
<filter id="filter0_d_77_1573" x="0.73877" y="0.400024" width="198.536" height="34.08" filterUnits="userSpaceOnUse" color-interpolation-filters="sRGB">
<feFlood flood-opacity="0" result="BackgroundImageFix"/>
<feColorMatrix in="SourceAlpha" type="matrix" values="0 0 0 0 0 0 0 0 0 0 0 0 0 0 0 0 0 0 127 0" result="hardAlpha"/>
<feOffset dy="4"/>
<feGaussianBlur stdDeviation="2"/>
<feComposite in2="hardAlpha" operator="out"/>
<feColorMatrix type="matrix" values="0 0 0 0 0 0 0 0 0 0 0 0 0 0 0 0 0 0 0.25 0"/>
<feBlend mode="normal" in2="BackgroundImageFix" result="effect1_dropShadow_77_1573"/>
<feBlend mode="normal" in="SourceGraphic" in2="effect1_dropShadow_77_1573" result="shape"/>
</filter>
</defs>
</svg>
